<?xml version="1.0" standalone="no"?>
<!DOCTYPE svg PUBLIC "-//W3C//DTD SVG 20010904//EN"
 "http://www.w3.org/TR/2001/REC-SVG-20010904/DTD/svg10.dtd">
<svg version="1.0" xmlns="http://www.w3.org/2000/svg"
 width="300.000000pt" height="519.000000pt" viewBox="0 0 300.000000 519.000000"
 preserveAspectRatio="xMidYMid meet">
<metadata>
Created by potrace 1.15, written by Peter Selinger 2001-2017
</metadata>
<g transform="translate(0.000000,519.000000) scale(0.100000,-0.100000)"
fill="#000000" stroke="none">
<g>
<path d="M1195 5179 c-110 -3 -419 -7 -687 -8 l-488 -1 -2 -212 c-4 -610 -7
-1327 -6 -1683 1 -220 1 -1047 1 -1838 l1 -1437 1490 2 1491 3 0 2075 c0 1878
-8 3026 -21 3088 l-5 23 -787 -3 c-433 -2 -877 -6 -987 -9z m1223 -29 c2 -13
-9 -15 -68 -13 -38 2 -101 4 -139 6 -38 1 -67 -1 -65 -5 3 -4 38 -8 78 -8 70
0 174 -14 185 -25 2 -3 0 -10 -6 -16 -9 -9 -53 -7 -165 4 -84 9 -225 21 -313
27 -88 6 -170 13 -182 16 -13 2 -23 0 -23 -5 0 -12 123 -27 331 -41 91 -6 206
-17 255 -23 78 -11 89 -14 89 -32 0 -18 -7 -20 -85 -22 -47 -1 -137 -7 -200
-12 -63 -6 -163 -13 -222 -17 -63 -4 -108 -11 -108 -17 0 -6 26 -8 73 -4 161
14 435 28 486 25 51 -3 81 -23 49 -32 -7 -2 -40 -12 -73 -21 -33 -10 -94 -28
-135 -42 -125 -40 -162 -51 -240 -72 -115 -30 -276 -84 -262 -89 6 -2 49 8 94
22 46 13 151 43 233 66 83 23 197 58 255 76 120 39 140 41 140 17 0 -12 -22
-27 -68 -47 -137 -60 -259 -117 -312 -147 -30 -16 -92 -48 -138 -71 -45 -22
-81 -43 -79 -45 6 -6 118 44 247 110 63 33 171 84 239 114 98 43 126 52 132
41 17 -25 4 -40 -71 -81 -104 -56 -153 -88 -147 -94 3 -3 32 11 64 30 32 19
84 48 115 63 47 23 59 25 72 15 20 -17 21 -37 2 -44 -24 -9 -136 -100 -131
-105 3 -3 18 3 33 14 15 11 50 36 78 57 l52 37 17 -26 c16 -25 16 -26 -22 -71
-69 -82 -105 -133 -95 -133 6 0 31 26 56 58 84 106 93 115 110 109 23 -9 20
-28 -14 -102 -16 -36 -30 -68 -30 -70 0 -3 -13 -33 -30 -67 -16 -34 -28 -64
-25 -66 3 -3 6 -3 8 -1 8 14 70 146 98 207 17 39 35 72 39 72 17 0 32 -32 27
-57 -9 -53 -77 -318 -107 -417 -27 -91 -31 -131 -11 -97 10 16 54 172 75 266
26 115 72 269 82 272 5 1 14 -1 21 -5 12 -8 1 -169 -27 -372 -13 -93 -13 -147
-1 -135 9 10 34 197 51 389 5 60 11 111 14 113 2 2 14 -1 28 -6 24 -9 24 -11
17 -83 -9 -96 -9 -448 1 -448 10 0 20 132 20 274 0 164 10 256 27 263 8 3 16
3 19 0 3 -2 7 -56 10 -118 2 -63 9 -153 15 -200 6 -48 11 -121 11 -163 1 -44
5 -76 11 -76 7 0 7 53 2 158 -5 86 -9 213 -9 282 -1 107 1 125 15 128 14 3 17
-14 22 -120 14 -265 20 -348 28 -348 5 0 9 16 9 36 0 19 4 33 8 30 8 -5 7
-1704 -1 -1712 -9 -9 -60 42 -73 72 -15 36 -51 54 -65 33 -5 -8 -9 -27 -9 -44
0 -45 -31 -168 -46 -184 -19 -20 -44 3 -44 40 0 18 -5 29 -14 29 -16 0 -56
-59 -56 -83 0 -9 -15 -30 -32 -46 -36 -34 -46 -30 -64 22 -6 19 -19 33 -30 35
-16 2 -23 -8 -37 -56 -9 -32 -17 -63 -17 -70 0 -7 -14 -12 -35 -12 -23 0 -35
-5 -35 -14 0 -8 -9 -24 -19 -37 l-19 -24 -11 28 c-6 15 -14 27 -19 27 -15 0
-40 -33 -47 -63 -8 -30 -28 -35 -52 -12 -25 26 -37 12 -58 -66 -24 -89 -44
-127 -87 -169 -32 -30 -32 -31 -8 -28 15 2 34 17 48 38 25 38 72 60 72 34 0
-23 -49 -114 -65 -121 -17 -6 -20 -23 -5 -23 13 0 60 52 60 67 0 6 18 47 39
90 22 43 52 111 67 150 28 74 44 92 44 50 0 -28 38 -52 68 -43 42 14 72 72 97
189 7 34 22 35 35 3 5 -14 19 -30 30 -36 33 -18 85 27 103 88 l14 47 19 -32
c10 -18 25 -35 32 -38 33 -13 82 62 82 125 0 12 5 41 11 66 l12 45 46 -49 c25
-27 52 -51 60 -54 10 -3 14 -31 15 -118 l1 -115 -76 -38 c-81 -40 -159 -104
-159 -131 0 -9 5 -16 10 -16 6 0 10 4 10 10 0 34 126 129 194 146 l29 7 -5
-68 c-3 -53 -8 -69 -23 -78 -10 -5 -33 -25 -49 -43 -17 -18 -53 -42 -80 -54
-45 -19 -51 -19 -73 -5 -20 13 -23 22 -18 46 8 37 -12 39 -25 3 -7 -17 -7 -32
1 -45 5 -11 7 -29 4 -39 -5 -15 0 -22 18 -29 26 -10 24 6 19 -220 -2 -59 -4
-65 -39 -98 -40 -37 -98 -67 -112 -58 -15 9 16 78 38 87 12 4 19 12 16 18 -3
5 -1 10 4 10 20 0 11 30 -14 46 -14 9 -25 22 -25 28 0 14 -46 59 -77 75 -12 6
-39 11 -61 11 -23 0 -45 6 -52 15 -20 24 -37 18 -44 -16 -3 -18 -14 -38 -24
-45 -16 -13 -15 -16 10 -38 33 -29 45 -70 28 -91 -7 -8 -16 -13 -20 -10 -9 5
-34 -22 -36 -39 -4 -55 -19 -79 -57 -96 -38 -17 -40 -17 -73 2 -19 11 -36 24
-39 28 -3 4 16 28 41 53 41 40 45 49 39 76 -4 17 -10 31 -14 31 -7 0 -36 23
-74 58 -43 40 -157 191 -157 209 0 26 -40 56 -68 51 -14 -2 -32 14 -64 57 -43
59 -128 125 -160 125 -9 0 -20 17 -27 41 -7 23 -14 46 -17 53 -3 10 40 34 89
50 27 8 20 35 -10 42 -93 20 -243 92 -243 115 0 5 -4 9 -10 9 -5 0 -10 -10
-10 -21 0 -19 -2 -20 -17 -8 -15 12 -16 12 -10 -3 3 -10 2 -18 -3 -18 -15 0
-12 21 5 40 13 15 12 19 -10 40 -14 13 -25 18 -25 12 0 -7 -4 -12 -10 -12 -5
0 -10 9 -10 19 0 11 -11 28 -23 38 -34 26 -67 84 -110 188 -37 91 -57 164 -56
200 1 19 7 0 30 -87 5 -21 16 -38 23 -38 8 0 16 -17 19 -45 9 -63 49 -142 98
-192 22 -24 44 -43 48 -43 5 0 28 -19 52 -43 62 -61 110 -87 208 -114 126 -34
158 -35 213 -7 26 13 53 34 59 46 7 13 17 26 23 30 16 10 -25 38 -46 32 -26
-8 -22 5 5 16 21 8 20 9 -7 9 -34 1 -66 26 -66 52 0 20 -28 39 -47 32 -6 -2
-22 2 -35 11 -13 8 -43 20 -67 26 -23 6 -41 14 -38 17 3 3 27 -2 53 -11 55
-19 54 -18 54 -8 0 4 -13 15 -29 25 -16 9 -54 54 -85 100 -31 45 -65 92 -76
105 l-19 23 -41 -21 c-48 -24 -67 -18 -31 11 14 12 31 17 42 14 24 -8 25 13 2
22 -53 19 -85 105 -60 160 8 17 7 27 -2 36 -9 9 -13 7 -17 -11 -8 -29 -22 -28
-34 3 -5 14 -15 24 -22 23 -7 -2 -14 7 -16 20 l-4 23 39 -21 c51 -27 57 -26
72 18 7 20 30 55 50 77 78 85 77 82 55 108 l-19 22 24 -20 23 -20 32 38 c51
61 65 48 70 -66 2 -43 7 -61 15 -59 7 1 10 -2 6 -7 -3 -6 3 -20 14 -33 11 -13
33 -49 50 -81 17 -32 59 -91 93 -132 35 -41 81 -97 103 -125 31 -40 57 -59
120 -89 85 -41 214 -68 245 -51 10 6 44 3 89 -6 55 -11 76 -12 86 -4 8 7 19 9
24 6 5 -4 14 1 19 10 6 10 24 17 49 18 43 2 90 27 100 52 3 9 -4 25 -15 37
-20 19 -25 20 -58 8 -32 -12 -38 -11 -46 3 -12 21 -39 21 -31 0 3 -9 0 -20 -8
-25 -12 -8 -11 -12 5 -24 19 -14 18 -15 -12 -15 -18 0 -32 -4 -32 -10 0 -19
-49 -42 -75 -36 -14 4 -23 11 -20 17 4 6 -2 8 -17 4 -28 -7 -53 16 -53 49 0
19 -5 21 -60 18 -33 -2 -65 -8 -72 -14 -7 -5 -17 -7 -23 -3 -14 9 -12 41 4 54
8 6 16 20 18 29 5 19 1 21 -79 25 -64 4 -76 13 -32 24 18 5 34 14 36 19 5 14
-54 74 -72 74 -20 0 -19 15 2 35 13 14 14 21 5 36 -16 25 -15 30 2 23 19 -7
57 32 50 51 -4 9 -15 20 -25 26 -20 10 -26 39 -9 39 6 0 10 -5 10 -12 0 -9 3
-9 11 -1 9 9 16 7 28 -6 9 -9 13 -12 8 -5 -10 15 28 40 71 46 28 4 34 0 53
-30 12 -21 17 -41 13 -51 -19 -42 -5 -101 23 -101 24 0 48 -29 35 -42 -9 -9
-16 -7 -30 5 -26 24 -82 23 -82 -1 0 -30 23 -53 65 -62 62 -15 68 -13 61 14
-4 15 0 28 9 36 8 7 15 18 15 24 0 8 -46 45 -78 62 -1 0 5 18 14 39 15 36 15
42 0 72 -16 33 -21 75 -11 85 3 3 24 1 47 -5 36 -9 43 -8 55 9 7 10 11 24 9
30 -8 22 13 80 38 103 23 22 27 22 101 11 107 -16 149 -8 175 37 15 26 18 38
10 43 -8 5 -7 9 4 13 18 7 22 37 5 37 -5 0 -8 -4 -5 -9 7 -11 -81 -47 -91 -37
-3 3 8 11 25 17 38 13 40 22 7 43 -33 22 -42 20 -20 -4 20 -23 9 -26 -18 -6
-25 19 -12 71 23 96 35 25 36 25 43 -1 7 -26 27 -15 27 15 0 12 7 31 15 42 8
10 15 22 15 27 0 13 -27 7 -40 -8 -7 -8 -20 -14 -29 -13 -11 2 -15 -4 -14 -19
2 -19 -23 -40 -35 -29 -11 12 29 74 51 80 27 6 52 48 44 70 -4 9 -18 16 -32
16 -15 0 -24 4 -20 10 3 6 -1 10 -10 10 -11 0 -15 -5 -12 -14 4 -11 1 -14 -11
-10 -9 2 -7 -1 6 -7 12 -7 22 -19 22 -29 0 -40 -59 -57 -61 -17 -1 18 -2 18
-6 4 -3 -11 -11 -16 -19 -13 -8 3 -14 1 -14 -3 0 -5 6 -11 14 -14 15 -6 28
-59 20 -81 -3 -8 -13 -12 -22 -9 -9 3 -23 7 -31 9 -11 4 -12 7 -3 16 16 16 15
48 -2 48 -8 0 -17 -7 -20 -15 -3 -9 -11 -15 -18 -13 -19 3 -60 -21 -53 -33 4
-5 17 -9 31 -9 19 0 24 -5 24 -25 0 -31 13 -32 32 -3 13 20 17 21 32 9 31 -26
14 -51 -35 -51 -11 0 -43 -16 -72 -35 -28 -19 -61 -35 -72 -36 -19 0 -20 -1
-1 -8 19 -7 19 -8 -2 -13 -12 -3 -23 -1 -25 6 -3 8 -10 8 -28 -1 -46 -23 -102
-33 -116 -21 -9 7 -38 8 -86 4 -58 -5 -80 -3 -107 10 -18 9 -49 18 -69 20 -19
1 -41 10 -48 20 -15 21 -45 11 -36 -12 4 -12 3 -15 -5 -10 -7 4 -12 14 -12 22
0 11 -6 13 -20 9 -25 -8 -26 11 -2 24 13 7 31 6 58 -4 21 -7 42 -11 47 -8 13
8 -3 23 -25 23 -11 0 -35 15 -53 33 -45 45 -171 129 -242 162 -114 52 -123 58
-123 77 0 24 16 23 42 -2 25 -23 70 -26 90 -6 8 8 23 15 33 17 29 6 29 28 1
35 -14 3 -26 11 -26 16 0 6 10 8 23 4 67 -19 67 -19 61 -2 -4 10 -1 16 9 16 8
0 17 9 20 21 5 18 2 20 -19 15 -21 -6 -24 -3 -24 23 0 16 6 31 14 34 10 4 12
15 5 49 -4 24 -8 50 -9 59 0 8 39 40 93 73 50 32 103 66 117 75 14 10 33 20
43 24 19 7 22 22 7 32 -5 3 -10 18 -9 33 l1 27 10 -27 c5 -16 14 -28 19 -28
13 0 3 -48 -13 -68 -11 -13 -10 -15 5 -9 9 3 17 2 17 -3 0 -14 -41 -39 -56
-33 -8 3 -14 1 -14 -3 0 -5 -3 -20 -6 -34 -4 -20 -3 -22 5 -10 21 29 12 -41
-10 -76 -29 -48 -8 -42 34 9 27 33 33 47 26 60 -7 11 -6 17 1 17 5 0 10 6 10
14 0 7 6 19 14 26 8 6 16 20 18 31 4 24 23 26 23 3 0 -48 118 -20 131 30 10
40 -6 119 -28 143 -13 13 -19 30 -15 42 5 20 4 20 -25 5 -16 -9 -33 -13 -36
-9 -3 3 3 31 13 61 16 48 17 57 4 65 -19 12 -36 11 -44 -1 -3 -5 -15 -10 -25
-10 -12 0 -25 -13 -36 -36 -9 -20 -28 -40 -40 -44 -13 -5 -26 -21 -30 -35 -5
-20 -11 -24 -29 -19 -13 3 -33 0 -46 -6 -23 -13 -99 -18 -115 -7 -13 8 -137
-26 -168 -47 -14 -9 -30 -25 -36 -36 -8 -16 -21 -20 -60 -20 -37 0 -55 -5 -70
-20 -22 -22 -40 -61 -45 -95 -1 -11 -3 -23 -4 -26 0 -4 -10 -9 -21 -12 -11 -3
-27 -22 -35 -42 -9 -20 -22 -38 -30 -41 -7 -3 -16 -12 -19 -20 -4 -12 -2 -12
14 -4 11 6 31 8 45 4 27 -7 32 4 15 37 -6 11 -7 19 -3 18 20 -3 25 2 13 15 -9
12 -4 19 29 36 27 13 41 27 41 40 0 13 7 20 18 20 10 0 23 5 29 11 8 8 16 3
29 -17 9 -16 26 -42 37 -58 14 -20 18 -38 14 -62 -4 -26 0 -40 17 -61 32 -40
80 -132 73 -140 -4 -3 -7 1 -7 10 0 10 -7 17 -16 17 -22 0 -12 -23 16 -37 l24
-12 -27 -10 c-15 -6 -27 -18 -27 -27 0 -8 -6 -14 -12 -11 -7 2 -12 11 -10 19
1 9 -9 26 -23 39 -25 24 -33 63 -15 74 5 3 6 13 3 23 -6 15 -4 15 9 4 15 -12
15 -10 6 22 -12 39 -28 48 -28 16 0 -11 -4 -20 -9 -20 -14 0 -21 -43 -9 -58 9
-10 8 -12 -3 -10 -17 4 -13 -43 5 -54 7 -5 7 -8 1 -8 -6 0 -16 -18 -22 -40 -7
-27 -7 -40 0 -40 6 0 19 -7 28 -16 18 -16 18 -17 -4 -33 -77 -57 -122 -68
-182 -47 -20 8 -20 7 -1 -8 32 -26 82 -19 152 20 35 20 66 40 70 45 7 11 24
12 24 0 0 -4 -27 -25 -60 -46 -55 -35 -59 -39 -45 -55 17 -19 20 -40 5 -40 -5
0 -12 10 -15 23 -6 22 -10 23 -72 21 -36 -2 -66 -5 -67 -6 -1 -2 -11 -18 -24
-35 -21 -31 -22 -33 -3 -33 12 0 23 11 30 30 5 17 15 30 20 30 6 0 8 -7 5 -15
-7 -18 7 -20 24 -3 9 9 12 4 12 -25 0 -43 -25 -62 -71 -52 -19 4 -29 3 -29 -5
0 -7 -6 -5 -16 4 -8 9 -29 16 -45 16 -34 0 -45 19 -29 49 7 14 7 21 0 21 -5 0
-10 -8 -10 -17 -1 -17 -1 -17 -11 -1 -8 14 -3 25 25 53 41 41 53 45 30 10 -10
-15 -12 -25 -5 -25 6 0 18 14 26 30 14 27 14 31 0 36 -22 9 -57 8 -77 0 -13
-6 -15 -3 -11 14 3 13 11 19 19 16 8 -3 14 0 14 7 1 11 80 77 93 77 4 0 7 -6
7 -14 0 -8 5 -18 12 -22 8 -5 10 9 6 54 -5 47 -3 62 8 66 8 3 14 15 14 26 0
24 18 26 46 5 10 -8 25 -15 32 -15 22 0 1 21 -35 37 -20 8 -53 26 -75 39 -50
32 -63 23 -19 -14 26 -22 31 -32 26 -52 -9 -35 -123 -108 -188 -121 -62 -11
-93 -30 -118 -74 -21 -34 -76 -74 -274 -195 -66 -40 -156 -97 -200 -125 -125
-82 -273 -174 -306 -190 -26 -14 -32 -14 -59 0 -39 20 -41 20 -85 -15 -37 -29
-48 -44 -77 -100 -17 -33 -20 383 -10 1270 l7 645 355 1 c336 0 1663 15 1667
18 1 0 77 1 170 1 143 0 168 -2 171 -15z m530 -221 l4 -237 -59 -22 c-170 -64
-377 32 -442 205 -19 49 -22 75 -19 140 2 44 12 97 21 118 l16 37 238 -2 238
-3 3 -236z m-2911 154 c-3 -10 -5 -4 -5 12 0 17 2 24 5 18 2 -7 2 -21 0 -30z
m2921 -603 c4 -243 -8 -213 -24 59 -6 104 -5 123 7 119 11 -4 15 -40 17 -178z
m-828 81 c0 -5 -6 -14 -14 -20 -10 -9 -15 -8 -19 3 -3 8 -3 17 0 20 9 9 33 7
33 -3z m63 -28 c2 -10 -6 -29 -17 -42 l-21 -24 32 17 c31 15 33 15 43 -3 14
-27 13 -104 -2 -119 -19 -19 -27 -14 -25 16 2 23 -3 29 -30 37 -18 5 -33 15
-33 22 0 7 -7 13 -15 13 -18 0 -21 55 -4 66 8 5 10 -1 7 -20 -4 -19 -1 -26 10
-26 11 0 13 8 9 36 -5 29 -3 35 8 30 8 -3 15 -1 15 4 0 17 18 11 23 -7z m-99
-102 c-8 -10 -24 14 -24 37 l1 27 13 -30 c7 -16 12 -32 10 -34z m-159 -26
c-22 -19 -44 -35 -49 -35 -5 0 -23 -10 -40 -23 -67 -49 -79 -51 -122 -23 -68
44 -84 57 -84 66 0 4 56 8 124 8 105 0 130 4 162 21 54 28 55 26 9 -14z m250
-15 c7 -12 -2 -12 -30 0 -19 8 -19 9 2 9 12 1 25 -3 28 -9z m-680 -30 c-3 -5
-10 -10 -16 -10 -5 0 -9 5 -9 10 0 6 7 10 16 10 8 0 12 -4 9 -10z m665 -10 c0
-5 -2 -10 -4 -10 -3 0 -8 5 -11 10 -3 6 -1 10 4 10 6 0 11 -4 11 -10z m-535
-40 c3 -5 1 -10 -4 -10 -6 0 -11 5 -11 10 0 6 2 10 4 10 3 0 8 -4 11 -10z m5
-51 c0 -6 -4 -7 -10 -4 -5 3 -10 11 -10 16 0 6 5 7 10 4 6 -3 10 -11 10 -16z
m80 -67 c0 -7 -4 -10 -10 -7 -5 3 -10 16 -10 28 0 18 2 19 10 7 5 -8 10 -21
10 -28z m-21 -50 c0 -24 -1 -25 -9 -7 -12 28 -12 47 0 40 6 -3 10 -18 9 -33z
m71 12 c0 -8 -4 -12 -10 -9 -5 3 -10 13 -10 21 0 8 5 12 10 9 6 -3 10 -13 10
-21z m-96 -28 c3 -12 17 -28 31 -34 14 -6 25 -18 25 -26 0 -24 -72 29 -86 64
-7 15 -10 31 -7 34 10 9 30 -13 37 -38z m66 -13 c0 -7 -4 -13 -10 -13 -5 0
-10 12 -10 28 0 21 2 24 10 12 5 -8 10 -21 10 -27z m10 -93 c-19 -12 -30 -12
-30 -1 0 10 31 20 40 14 2 -2 -2 -8 -10 -13z m-640 -145 c-7 -8 -17 -15 -23
-15 -5 0 -2 9 8 20 21 23 35 19 15 -5z m1651 -38 c-16 -16 -20 -5 -8 23 9 22
11 23 14 6 3 -10 0 -23 -6 -29z m-1091 13 c0 -5 -2 -10 -4 -10 -3 0 -8 5 -11
10 -3 6 -1 10 4 10 6 0 11 -4 11 -10z m-479 -37 c13 -17 13 -17 -6 -3 -11 8
-22 16 -24 17 -2 2 0 3 6 3 6 0 17 -8 24 -17z m64 -13 c-18 -20 -45 -27 -45
-12 0 8 53 40 59 35 2 -1 -4 -12 -14 -23z m375 11 c0 -18 -18 -21 -30 -6 -10
13 -9 15 9 15 11 0 21 -4 21 -9z m-40 -21 c0 -5 -4 -10 -10 -10 -5 0 -10 5
-10 10 0 6 5 10 10 10 6 0 10 -4 10 -10z m120 0 c0 -5 -7 -10 -15 -10 -8 0
-15 5 -15 10 0 6 7 10 15 10 8 0 15 -4 15 -10z m-535 -20 c3 -5 2 -10 -4 -10
-5 0 -13 5 -16 10 -3 6 -2 10 4 10 5 0 13 -4 16 -10z m385 0 c0 -5 -2 -10 -4
-10 -3 0 -8 5 -11 10 -3 6 -1 10 4 10 6 0 11 -4 11 -10z m92 -25 c4 -5 -7 -21
-23 -36 -19 -17 -26 -28 -18 -31 10 -3 9 -10 -3 -27 -16 -23 -16 -23 -27 -3
-17 32 -13 47 15 62 17 10 24 20 21 32 -4 13 0 18 11 16 10 -2 20 -7 24 -13z
m82 -4 c3 -5 15 -7 26 -4 14 4 21 -1 25 -20 8 -31 3 -62 -10 -62 -6 0 -12 11
-14 25 -4 31 -17 40 -58 40 -31 0 -41 9 -26 23 9 10 51 8 57 -2z m118 -23 c33
-37 35 -42 9 -28 -11 5 -28 7 -38 4 -16 -5 -16 -4 2 11 20 15 19 16 -3 21 -12
4 -22 10 -22 15 0 19 24 8 52 -23z m-752 13 c0 -12 -29 -41 -41 -41 -15 0 -10
22 9 36 20 16 32 18 32 5z m380 -22 c0 -11 -4 -17 -10 -14 -5 3 -10 13 -10 21
0 8 5 14 10 14 6 0 10 -9 10 -21z m17 -1 c-3 -8 -6 -5 -6 6 -1 11 2 17 5 13 3
-3 4 -12 1 -19z m-528 -21 c-29 -24 -99 -66 -99 -60 0 10 93 73 99 67 2 -2 2
-6 0 -7z m732 -10 c-10 -9 -11 -8 -5 6 3 10 9 15 12 12 3 -3 0 -11 -7 -18z
m-568 1 c3 -10 8 -10 21 1 23 19 32 6 16 -24 -12 -22 -11 -27 2 -38 23 -18 29
-57 12 -89 -18 -35 -27 -37 -14 -3 12 32 -7 67 -32 60 -9 -3 -19 -1 -23 5 -11
18 -35 -9 -35 -41 0 -34 -13 -37 -33 -8 -15 21 -12 59 4 59 5 0 9 5 9 10 0 6
-7 10 -16 10 -13 0 -14 3 -5 14 8 10 9 16 1 21 -5 3 -10 1 -10 -4 0 -14 -47
-14 -55 -1 -6 10 18 13 93 12 21 0 39 -8 47 -19 7 -10 17 -14 22 -10 4 5 0 13
-10 18 -9 6 -17 17 -17 24 0 18 17 20 23 3z m749 -10 c6 6 16 12 21 12 5 0
-16 -21 -46 -47 l-56 -47 27 -24 c27 -24 27 -24 2 -11 -14 6 -28 17 -32 22 -4
7 -11 7 -21 -1 -8 -7 -33 -13 -55 -15 -27 -2 -47 -9 -56 -22 -13 -17 -15 -17
-16 -4 0 25 23 39 77 48 34 5 64 19 92 42 23 18 38 35 32 37 -6 2 -8 8 -5 14
4 6 10 5 15 -3 6 -11 11 -11 21 -1z m-646 -25 c-7 -7 -26 7 -26 19 0 6 6 6 15
-2 9 -7 13 -15 11 -17z m274 17 c0 -5 -4 -10 -10 -10 -5 0 -10 5 -10 10 0 6 5
10 10 10 6 0 10 -4 10 -10z m1150 5 c0 -3 -15 -11 -33 -19 -34 -14 -73 -61
-58 -70 5 -3 19 3 31 14 25 22 40 26 40 10 0 -5 7 -10 15 -10 8 0 15 4 15 9 0
5 7 12 16 15 15 6 15 4 3 -10 -24 -30 -21 -52 9 -57 25 -4 25 -4 -5 -6 -18 0
-33 -5 -33 -10 0 -6 15 -12 33 -14 28 -4 -77 2 -143 8 -27 2 -56 -11 -80 -37
-18 -20 -60 -33 -60 -19 0 16 98 129 123 142 12 7 25 16 28 21 10 15 99 45 99
33z m-910 -15 c0 -5 -4 -10 -10 -10 -5 0 -10 5 -10 10 0 6 5 10 10 10 6 0 10
-4 10 -10z m-754 -59 c-10 -16 -66 8 -66 29 0 10 6 20 13 23 15 5 61 -39 53
-52z m288 53 c23 -9 20 -24 -4 -24 -11 0 -20 7 -20 15 0 17 2 18 24 9z m270
-16 c-4 -6 0 -14 7 -19 25 -15 -13 -34 -58 -30 -18 1 -16 41 1 41 7 0 19 7 26
15 13 16 34 10 24 -7z m-104 -7 c0 -16 -28 -32 -64 -38 -29 -5 -36 -3 -36 11
0 10 4 15 9 12 5 -4 11 0 14 6 3 10 7 10 20 -1 14 -11 18 -11 23 3 6 17 34 23
34 7z m-639 -50 c-42 -53 -108 -111 -127 -111 -8 0 -35 -20 -59 -44 -29 -28
-65 -51 -104 -65 -33 -12 -63 -26 -66 -31 -4 -6 -15 -10 -25 -10 -11 0 -34 -9
-52 -20 -35 -21 -58 -26 -58 -11 0 4 42 35 93 66 50 32 143 92 205 132 234
153 243 157 193 94z m143 -8 c37 -30 30 -66 -18 -88 -42 -20 -67 -14 -83 22
-18 39 -16 70 7 93 21 21 38 16 94 -27z m276 37 c0 -5 -4 -10 -10 -10 -5 0
-10 5 -10 10 0 6 5 10 10 10 6 0 10 -4 10 -10z m407 -32 c-3 -7 -5 -2 -5 12 0
14 2 19 5 13 2 -7 2 -19 0 -25z m-307 12 c0 -5 -5 -10 -11 -10 -5 0 -7 5 -4
10 3 6 8 10 11 10 2 0 4 -4 4 -10z m-215 -10 c3 -5 1 -10 -4 -10 -6 0 -11 5
-11 10 0 6 2 10 4 10 3 0 8 -4 11 -10z m387 -16 c22 -8 33 -64 21 -100 -5 -16
-24 -36 -42 -46 -29 -16 -35 -17 -60 -3 -39 20 -48 67 -21 122 22 46 35 54 65
41 11 -4 28 -11 37 -14z m478 9 c0 -2 -13 -9 -30 -14 -16 -6 -30 -15 -30 -20
0 -5 -10 -9 -22 -9 -22 1 -22 1 -3 12 11 6 26 19 32 29 11 15 53 17 53 2z
m-714 -15 c-4 -13 -10 -40 -13 -61 -4 -26 -9 -34 -14 -25 -12 18 -11 51 1 82
12 32 35 35 26 4z m373 -41 c1 -14 -4 -17 -19 -12 -14 5 -20 2 -20 -9 0 -25
-19 -19 -30 9 -6 16 -6 34 0 51 l10 25 29 -23 c17 -13 30 -31 30 -41z m412 48
c-18 -8 -36 -15 -40 -15 -13 1 45 29 59 29 8 0 0 -6 -19 -14z m699 1 c0 -3 -4
-8 -10 -11 -5 -3 -10 -1 -10 4 0 6 5 11 10 11 6 0 10 -2 10 -4z m-1392 -27
c10 -16 10 -24 1 -35 -15 -19 -49 -18 -49 1 0 8 -4 15 -10 15 -5 0 -10 5 -10
11 0 8 4 8 14 0 10 -8 16 -9 21 -1 3 5 1 10 -4 10 -6 0 -11 5 -11 10 0 18 35
10 48 -11z m399 -17 c17 -42 10 -41 -16 4 -12 20 -16 34 -9 32 7 -3 18 -19 25
-36z m341 21 c-2 -14 -15 -19 -60 -21 -52 -3 -57 -1 -51 14 4 11 8 13 11 6 5
-17 44 -15 68 3 26 19 36 19 32 -2z m269 -20 c-9 -21 -9 -27 1 -31 25 -8 12
-39 -20 -48 -25 -8 -34 -17 -39 -39 -5 -25 -7 -27 -13 -12 -12 25 -24 21 -29
-10 -4 -27 -4 -27 -12 -5 -5 16 -13 21 -26 17 -10 -4 -24 -3 -31 2 -7 4 -19 8
-27 8 -8 0 -16 6 -18 13 -4 9 12 12 55 12 83 0 110 36 46 60 -31 12 -31 30 1
30 14 0 25 5 25 11 0 6 6 9 13 6 8 -3 20 -1 28 4 8 5 24 9 36 9 21 0 22 -2 10
-27z m-1332 -20 c0 -15 -7 -28 -15 -30 -13 -4 -13 -3 0 6 13 10 13 13 -4 22
-15 9 -16 13 -5 20 22 13 25 11 24 -18z m1140 17 c-3 -5 -13 -10 -21 -10 -8 0
-12 5 -9 10 3 6 13 10 21 10 8 0 12 -4 9 -10z m-1042 -34 c15 -4 27 -10 27
-14 0 -12 -53 -32 -87 -32 -30 0 -33 -2 -27 -24 3 -13 1 -27 -5 -30 -7 -5 -8
-1 -5 9 5 11 2 14 -10 9 -9 -3 -16 -1 -16 5 0 6 5 11 12 11 6 0 3 7 -8 15 -21
16 -19 17 54 20 47 2 85 25 41 25 -25 0 -49 16 -49 32 0 5 10 2 23 -6 12 -7
34 -16 50 -20z m847 16 c8 2 16 -5 18 -14 5 -24 -42 -35 -74 -18 -29 16 -32
34 -5 27 12 -3 22 1 26 11 5 13 8 13 14 4 4 -7 14 -12 21 -10z m-1152 -25 c2
-11 -3 -17 -17 -17 -23 0 -35 15 -26 31 10 15 39 6 43 -14z m1362 3 c12 -8 9
-10 -12 -10 -15 0 -30 5 -33 10 -8 13 25 13 45 0z m-970 -10 c0 -5 -4 -10 -10
-10 -5 0 -10 5 -10 10 0 6 5 10 10 10 6 0 10 -4 10 -10z m-235 -27 c-7 -30
-25 -55 -25 -36 0 7 -9 9 -22 5 -21 -5 -22 -4 -8 14 38 48 65 57 55 17z m679
21 c17 -6 22 -24 8 -24 -5 0 -17 7 -28 15 -19 15 -8 20 20 9z m216 -45 c0 -22
-5 -26 -25 -26 -14 0 -25 3 -25 7 0 5 -3 15 -6 24 -4 12 0 16 15 16 13 0 21 6
21 18 0 14 2 15 10 2 5 -8 10 -27 10 -41z m210 30 c19 -3 24 -9 22 -25 -2 -14
6 -27 23 -38 28 -18 33 -36 10 -36 -8 0 -15 7 -15 15 0 8 -8 15 -19 15 -20 0
-71 46 -71 65 0 16 12 27 19 16 3 -5 17 -11 31 -12z m-729 -10 c8 -13 -2 -79
-12 -79 -5 0 -9 7 -9 15 0 17 -16 20 -25 5 -12 -20 -25 1 -14 22 9 17 8 24 -5
33 -9 7 -16 15 -16 19 0 9 74 -5 81 -15z m224 11 c3 -5 1 -10 -4 -10 -6 0 -11
-13 -11 -30 0 -30 -22 -42 -35 -19 -5 6 -12 4 -21 -8 -7 -10 -14 -13 -14 -6 0
6 8 18 18 25 11 7 24 23 31 36 13 24 26 28 36 12z m-887 -42 c-2 -35 0 -43 16
-46 11 -2 24 2 30 10 31 42 73 3 60 -56 l-6 -29 -16 26 c-20 33 -37 35 -28 5
17 -61 18 -68 8 -68 -6 0 -13 14 -17 30 -10 46 -29 37 -22 -10 6 -49 -5 -52
-22 -5 -17 47 -35 46 -27 -2 6 -35 6 -36 -6 -14 -20 37 -40 40 -33 4 6 -25 5
-26 -8 -10 -22 27 -37 21 -35 -15 2 -26 -1 -33 -14 -32 -12 1 -18 -5 -18 -17
0 -16 3 -18 19 -9 11 5 21 10 23 10 2 0 5 -28 6 -61 2 -34 5 -66 8 -70 8 -14
34 -10 50 6 25 25 44 18 44 -14 0 -27 21 -61 39 -61 4 0 12 5 19 12 9 9 11 -1
9 -44 -1 -43 2 -61 16 -75 9 -10 26 -29 36 -43 16 -20 21 -22 34 -11 13 11 16
10 15 -6 -2 -20 29 -73 43 -73 12 0 12 -53 0 -66 -11 -10 -50 -164 -58 -227
-3 -22 0 -43 7 -52 14 -17 68 -45 87 -45 7 0 21 -4 31 -9 9 -5 35 -14 57 -21
67 -19 74 -29 83 -116 6 -52 20 -103 39 -145 29 -63 36 -87 68 -220 18 -77 19
-103 4 -130 -12 -23 2 -75 30 -111 10 -13 19 -25 19 -28 0 -3 7 -22 16 -44 22
-52 22 -166 1 -166 -9 0 -18 -12 -21 -29 -3 -16 -16 -34 -28 -40 -56 -29 -190
-42 -264 -26 -30 7 -82 58 -82 81 0 16 -65 54 -93 54 -14 0 -30 6 -34 13 -13
19 -72 47 -101 47 -15 -1 -62 -9 -105 -19 -67 -16 -83 -24 -112 -57 -19 -22
-34 -48 -35 -60 0 -11 -9 -29 -20 -39 -26 -24 -25 -33 7 -95 16 -32 37 -56 52
-62 33 -12 41 -25 41 -68 0 -24 6 -39 19 -47 11 -7 27 -28 36 -47 16 -34 16
-36 -4 -62 -35 -44 -28 -61 33 -78 30 -9 66 -16 80 -16 19 0 29 -7 36 -26 8
-21 15 -25 35 -22 27 6 32 -1 14 -19 -8 -8 -6 -19 7 -39 27 -41 45 -53 80 -54
22 0 33 -6 37 -19 4 -16 15 -19 88 -19 77 -1 86 -3 104 -27 12 -14 28 -25 36
-25 24 0 51 -35 47 -62 -3 -22 -6 -23 -83 -19 -44 2 -85 7 -90 11 -6 5 -35 12
-65 15 -30 4 -73 16 -96 26 -23 11 -51 18 -64 17 -20 -3 -25 3 -31 31 -10 46
-33 69 -53 51 -9 -7 -16 -23 -16 -35 0 -28 -23 -48 -48 -41 -10 3 -27 -1 -38
-9 -10 -8 -26 -15 -34 -15 -8 0 -28 -7 -44 -15 -23 -12 -36 -13 -59 -5 -17 5
-44 10 -62 10 -23 0 -39 9 -62 35 -39 44 -61 44 -95 1 -20 -25 -45 -40 -93
-56 -37 -12 -68 -20 -70 -19 -1 2 -5 193 -6 424 l-4 420 28 3 c16 2 41 -1 56
-6 33 -12 48 -3 131 68 106 93 150 143 150 173 0 33 -20 27 -20 -6 -1 -26 -72
-106 -117 -133 -18 -10 -33 -22 -33 -26 0 -4 -20 -21 -44 -38 -39 -26 -48 -29
-72 -20 -15 6 -38 10 -50 8 l-23 -3 -5 895 -5 896 66 41 67 41 44 -34 c33 -25
55 -34 83 -34 35 0 40 -4 53 -34 8 -18 20 -37 27 -41 7 -5 5 2 -4 16 -9 13
-17 33 -16 44 0 15 4 13 17 -13 14 -29 19 -32 46 -26 24 5 108 46 125 60 2 2
-4 11 -14 20 -14 15 -18 15 -26 3 -5 -8 -9 -22 -9 -31 0 -10 -3 -18 -7 -18 -5
0 -19 -3 -32 -7 -22 -6 -23 -4 -18 22 6 36 -2 63 -14 44 -4 -7 -16 -14 -26
-17 -26 -5 -144 -3 -154 4 -22 13 -5 21 39 19 26 -1 32 0 14 2 -32 4 -51 25
-92 102 l-12 24 31 -22 c21 -15 40 -21 55 -17 16 4 30 -1 46 -19 13 -14 32
-25 43 -25 11 0 29 -7 39 -17 10 -9 18 -12 18 -7 -1 17 -25 41 -49 49 -21 6
-22 9 -8 17 12 6 24 4 42 -9 13 -10 25 -20 25 -23 1 -12 42 -72 46 -67 11 11
-30 89 -55 102 l-26 14 25 -3 c14 -1 32 -6 39 -10 18 -11 26 1 12 18 -10 12
-8 17 8 25 11 6 26 11 34 11 31 0 93 43 135 94 25 31 44 19 40 -26z m182 23
c0 -5 3 -17 6 -25 5 -12 2 -15 -10 -11 -9 3 -23 7 -32 10 -13 4 -14 8 -4 20
14 17 40 20 40 6z m766 -18 c-7 -7 -26 7 -26 19 0 6 6 6 15 -2 9 -7 13 -15 11
-17z m383 -7 c6 -8 14 -32 17 -54 4 -34 0 -45 -22 -67 -20 -21 -32 -25 -53
-20 -37 9 -71 33 -71 50 0 8 -4 15 -10 15 -5 0 -10 -8 -10 -17 1 -22 23 -53
38 -53 6 0 9 -7 6 -15 -4 -9 -19 -15 -35 -15 -26 0 -28 2 -23 29 5 22 2 30
-10 33 -14 2 -11 9 14 36 16 18 30 40 30 48 0 20 34 52 62 56 26 5 49 -4 67
-26z m360 7 c10 -19 9 -23 -3 -23 -16 0 -29 27 -20 42 7 11 7 10 23 -19z
m-1109 3 c0 -3 -4 -8 -10 -11 -5 -3 -10 -1 -10 4 0 6 5 11 10 11 6 0 10 -2 10
-4z m514 -45 c-4 -24 -2 -41 5 -45 6 -4 11 -14 11 -23 0 -9 7 -25 17 -35 9
-10 11 -18 5 -18 -16 0 -52 73 -52 104 0 25 9 56 16 56 2 0 1 -17 -2 -39z
m-653 -1 c27 0 24 -24 -6 -40 -21 -11 -29 -11 -50 0 -14 7 -25 19 -25 27 0 7
11 13 25 13 17 0 25 6 26 18 1 16 2 16 6 0 2 -10 13 -18 24 -18z m104 20 c3
-5 1 -10 -4 -10 -6 0 -11 5 -11 10 0 6 2 10 4 10 3 0 8 -4 11 -10z m-35 -10
c0 -5 -4 -10 -10 -10 -5 0 -10 5 -10 10 0 6 5 10 10 10 6 0 10 -4 10 -10z
m-198 -30 c-6 -15 -11 -19 -16 -12 -4 7 -1 18 6 26 17 19 20 14 10 -14z m458
13 l24 -17 -24 -6 c-16 -4 -26 -14 -28 -28 -2 -12 -10 -22 -19 -22 -11 0 -14
7 -10 26 3 20 0 28 -14 31 -15 4 -17 8 -8 19 16 19 49 18 79 -3z m-580 -7 c0
-2 -7 -9 -15 -16 -13 -11 -14 -10 -9 4 5 14 24 23 24 12z m1310 -6 c0 -5 -5
-10 -11 -10 -5 0 -7 5 -4 10 3 6 8 10 11 10 2 0 4 -4 4 -10z m-2000 -2 c0 -9
-70 -69 -70 -61 0 17 41 63 56 63 8 0 14 -1 14 -2z m1046 -38 c1 -13 7 -26 13
-28 22 -7 10 -22 -18 -22 -39 0 -54 20 -41 55 13 33 44 31 46 -5z m-386 -6 c0
-16 -2 -16 -24 -8 -22 8 -20 19 4 21 11 1 20 -4 20 -13z m500 8 c0 -5 -11 -15
-25 -22 -28 -15 -66 -89 -62 -123 1 -14 -5 -23 -18 -25 -11 -2 -23 -9 -27 -15
-11 -19 -21 0 -14 28 4 14 20 37 36 52 17 14 30 32 30 40 0 7 14 26 31 43 32
30 49 38 49 22z m174 -31 c-9 -10 -26 18 -18 30 5 9 9 8 14 -7 4 -10 6 -21 4
-23z m572 -4 c22 -12 17 -24 -13 -30 -42 -8 -54 12 -29 46 18 25 22 26 25 10
2 -10 9 -22 17 -26z m-811 23 c3 -5 1 -10 -4 -10 -6 0 -11 5 -11 10 0 6 2 10
4 10 3 0 8 -4 11 -10z m-135 -22 c23 -25 28 -96 8 -116 -7 -7 -8 -12 -4 -12 5
0 -3 -9 -16 -20 -21 -16 -31 -18 -60 -9 -20 5 -41 16 -48 24 -7 8 -19 15 -26
15 -19 0 -18 10 4 26 16 12 15 13 -5 14 -12 0 -25 5 -29 12 -5 8 0 9 14 6 27
-7 30 16 5 32 -15 9 -14 10 9 6 15 -4 30 -1 34 5 7 12 62 38 81 39 7 0 21 -10
33 -22z m-1040 -17 c0 -5 -7 -14 -15 -21 -12 -10 -15 -10 -15 2 0 8 3 18 7 21
9 10 23 9 23 -2z m1358 -5 c14 -9 16 -42 3 -51 -5 -3 -11 5 -13 17 -2 19 -8
22 -35 20 -36 -4 -73 5 -73 17 0 10 102 7 118 -3z m-611 -13 c-5 -25 20 -73
39 -73 8 0 18 -10 23 -22 5 -13 18 -32 30 -42 11 -11 21 -24 21 -29 0 -6 -3
-7 -7 -4 -10 10 -33 -13 -33 -33 0 -10 7 -23 16 -31 17 -14 15 -91 -6 -159 -5
-19 -10 -47 -10 -62 0 -16 -5 -28 -11 -28 -6 0 -9 9 -6 20 3 11 1 20 -4 20
-14 0 -10 54 6 76 20 26 19 34 -5 34 -16 0 -19 5 -14 24 7 29 -9 41 -35 27
-15 -9 -17 -17 -11 -51 4 -22 3 -40 -1 -40 -5 0 -9 -7 -9 -16 0 -8 -4 -12 -10
-9 -5 3 -10 22 -10 40 0 26 -3 33 -15 29 -20 -8 -20 45 0 72 18 23 20 74 3 74
-33 0 -58 -14 -58 -31 0 -10 -5 -21 -11 -25 -8 -4 -10 10 -8 47 3 40 1 53 -9
51 -11 -2 -11 18 3 63 1 6 -5 12 -16 12 -12 1 -16 -3 -12 -13 3 -8 0 -14 -6
-14 -6 0 -11 -8 -11 -19 0 -12 -7 -18 -17 -17 -13 1 -19 -7 -21 -26 -2 -16 -8
-28 -13 -28 -13 0 -11 47 4 70 10 17 9 22 -2 29 -20 13 -7 26 41 40 24 7 59
20 79 30 20 10 48 17 62 17 15 -1 27 2 27 6 0 4 5 8 11 8 6 0 9 -8 6 -17z
m463 2 c0 -8 -4 -15 -10 -15 -5 0 -10 7 -10 15 0 8 5 15 10 15 6 0 10 -7 10
-15z m-1106 -11 c16 -6 23 -34 8 -34 -10 0 -32 22 -32 32 0 10 3 10 24 2z
m1811 -24 c-3 -38 -11 -46 -29 -31 -8 7 -24 10 -36 6 -13 -4 -20 -2 -20 6 0
23 33 49 60 49 25 0 27 -3 25 -30z m-675 10 c0 -5 -4 -10 -10 -10 -5 0 -10 5
-10 10 0 6 5 10 10 10 6 0 10 -4 10 -10z m785 -10 c3 -5 1 -10 -4 -10 -6 0
-11 5 -11 10 0 6 2 10 4 10 3 0 8 -4 11 -10z m-1200 -10 c3 -5 3 -15 -1 -21
-6 -11 -23 6 -24 24 0 10 18 9 25 -3z m375 0 c0 -5 -4 -10 -10 -10 -5 0 -10 5
-10 10 0 6 5 10 10 10 6 0 10 -4 10 -10z m583 -17 c4 -29 26 -53 49 -53 21 0
30 -16 32 -61 1 -17 9 -35 19 -40 9 -6 17 -17 17 -24 0 -17 -16 -20 -25 -5 -4
6 -10 8 -15 5 -5 -3 -10 20 -12 52 -3 51 -6 58 -25 61 -13 2 -23 8 -23 13 0 6
-4 8 -9 5 -9 -6 -21 26 -21 58 0 24 8 17 13 -11z m51 -13 c23 0 46 -17 46 -33
0 -5 -6 -5 -12 1 -7 5 -24 12 -38 14 -20 2 -25 9 -27 33 -1 20 0 23 4 8 3 -16
12 -23 27 -23z m-1902 -2 c-9 -9 -12 -7 -12 12 0 19 3 21 12 12 9 -9 9 -15 0
-24z m1811 17 c-3 -9 -8 -14 -10 -11 -3 3 -2 9 2 15 9 16 15 13 8 -4z m-525
-40 c-6 -14 -16 -25 -22 -25 -6 0 -5 5 2 12 7 7 12 20 12 31 0 10 4 16 10 12
6 -3 5 -15 -2 -30z m757 5 c3 -6 -1 -7 -10 -4 -8 4 -22 1 -30 -6 -9 -8 -15 -8
-15 -2 0 19 45 29 55 12z m-745 -35 c-7 -8 -17 -15 -23 -15 -6 0 -2 7 9 15 25
19 30 19 14 0z m65 5 c3 -5 1 -10 -4 -10 -6 0 -11 5 -11 10 0 6 2 10 4 10 3 0
8 -4 11 -10z m685 0 c0 -5 -9 -10 -20 -10 -11 0 -20 5 -20 10 0 6 9 10 20 10
11 0 20 -4 20 -10z m-1050 -10 c13 -8 12 -11 -5 -24 -11 -9 -23 -16 -26 -16
-12 0 -17 39 -5 44 17 7 20 6 36 -4z m178 -38 c3 -16 -2 -22 -16 -22 -22 0
-32 17 -24 38 7 20 37 9 40 -16z m87 18 c4 -6 10 -8 15 -5 5 3 11 2 14 -3 2
-4 -9 -14 -25 -21 -27 -12 -32 -11 -50 5 l-21 19 24 6 c34 10 36 10 43 -1z
m-147 -15 c2 -2 -6 -13 -18 -25 -25 -25 -40 -19 -40 17 0 22 3 24 27 18 16 -4
29 -8 31 -10z m262 -3 c0 -9 -3 -12 -7 -9 -3 4 -14 0 -24 -9 -21 -19 -39 -11
-39 16 0 16 7 19 35 18 24 -1 35 -6 35 -16z m604 -24 c6 -5 2 -8 -11 -8 -16 0
-23 6 -23 18 0 26 14 38 19 15 2 -10 8 -21 15 -25z m-964 3 c0 -23 -9 -31 -26
-24 -17 6 -18 25 -2 41 14 14 28 6 28 -17z m1290 5 c0 -2 -9 -2 -20 1 -11 3
-20 9 -20 15 0 5 9 4 20 -2 11 -6 20 -12 20 -14z m-1356 -5 c17 -7 16 -8 -7
-24 -22 -15 -26 -15 -31 -1 -11 29 3 39 38 25z m96 -7 c0 -8 -4 -12 -10 -9 -5
3 -10 10 -10 16 0 5 5 9 10 9 6 0 10 -7 10 -16z m370 1 c0 -8 -4 -15 -10 -15
-5 0 -10 7 -10 15 0 8 5 15 10 15 6 0 10 -7 10 -15z m-300 -5 c0 -5 -5 -10
-11 -10 -5 0 -7 5 -4 10 3 6 8 10 11 10 2 0 4 -4 4 -10z m30 -59 c0 -45 -6
-37 -13 18 -4 29 -2 40 4 30 5 -7 9 -29 9 -48z m121 12 c15 -41 6 -48 -12 -9
-9 20 -12 36 -8 36 5 0 14 -12 20 -27z m-270 0 c13 -16 12 -17 -3 -4 -10 7
-18 15 -18 17 0 8 8 3 21 -13z m1044 -13 c1 -11 -4 -20 -11 -20 -7 0 -20 -3
-29 -6 -15 -6 -16 -4 -3 17 24 43 40 46 43 9z m-967 -10 c4 0 8 -19 9 -42 1
-43 -9 -58 -37 -57 -8 0 -5 4 8 9 12 5 22 14 22 20 0 13 -47 13 -55 0 -10 -17
-25 -11 -25 9 0 10 7 22 16 25 9 3 14 13 11 20 -6 16 11 27 31 20 8 -2 17 -4
20 -4z m68 -36 c9 3 14 -1 14 -14 0 -24 29 -98 81 -208 29 -61 38 -87 30 -95
-16 -16 -34 6 -36 45 -1 18 -7 46 -13 61 -7 16 -12 33 -12 38 0 5 -9 9 -20 9
-20 0 -28 25 -11 32 5 2 1 21 -10 42 -10 22 -19 46 -19 54 0 10 -9 6 -25 -12
-23 -25 -25 -25 -25 -7 0 12 5 21 11 21 7 0 9 9 6 21 -3 11 -3 28 1 37 6 14 7
12 10 -6 2 -16 8 -22 18 -18z m-156 16 c0 -5 -5 -10 -11 -10 -6 0 -9 -7 -5
-15 3 -8 1 -15 -3 -15 -5 0 -14 -17 -19 -37 l-10 -38 2 51 c2 28 6 56 10 62 9
15 36 16 36 2z m1135 0 c3 -5 15 -10 26 -10 20 0 26 -15 9 -25 -13 -8 -72 24
-65 35 8 13 22 13 30 0z m-918 -22 c-3 -8 -6 -5 -6 6 -1 11 2 17 5 13 3 -3 4
-12 1 -19z m214 -11 c-13 -12 -20 -15 -16 -7 14 26 28 41 33 35 3 -3 -5 -16
-17 -28z m-67 -56 c-2 -2 -11 2 -20 10 -9 7 -23 14 -31 15 -26 4 -40 24 -23
34 10 6 23 0 46 -23 17 -18 30 -34 28 -36z m744 53 c21 -14 31 -62 16 -77 -13
-13 -104 57 -104 80 0 18 60 17 88 -3z m-723 -4 c3 -5 1 -10 -4 -10 -6 0 -11
5 -11 10 0 6 2 10 4 10 3 0 8 -4 11 -10z m180 -36 c8 -20 15 -44 15 -54 0 -18
-48 -46 -59 -34 -3 4 0 9 7 11 14 5 16 43 2 43 -14 0 -13 43 2 58 16 16 16 17
33 -24z m-578 -16 c-3 -8 -6 -5 -6 6 -1 11 2 17 5 13 3 -3 4 -12 1 -19z m30 0
c-3 -8 -6 -5 -6 6 -1 11 2 17 5 13 3 -3 4 -12 1 -19z m1651 16 c12 -4 22 -11
22 -16 0 -5 -5 -6 -10 -3 -6 3 -13 -1 -16 -10 -5 -12 -9 -13 -20 -4 -8 6 -14
8 -14 4 0 -5 -2 -6 -5 -3 -7 6 5 38 14 38 3 0 16 -3 29 -6z m-1321 -25 c7 -7
22 -12 35 -13 18 -1 25 -9 33 -40 9 -37 8 -40 -25 -67 -19 -16 -43 -29 -53
-29 -23 0 -57 36 -57 60 0 39 13 80 26 80 8 0 14 5 14 10 0 13 13 13 27 -1z
m-250 -24 c-4 -8 -14 -15 -23 -15 -16 0 -16 2 1 20 20 22 31 20 22 -5z m-97
-10 c0 -18 -5 -25 -20 -25 -11 0 -20 7 -20 15 0 8 7 15 15 15 8 0 15 5 15 10
0 6 2 10 5 10 3 0 5 -11 5 -25z m127 -7 c-3 -7 -5 -2 -5 12 0 14 2 19 5 13 2
-7 2 -19 0 -25z m1061 14 c3 -9 -2 -13 -14 -10 -9 1 -19 9 -22 16 -3 9 2 13
14 10 9 -1 19 -9 22 -16z m-1152 -19 c-10 -10 -19 5 -10 18 6 11 8 11 12 0 2
-7 1 -15 -2 -18z m-91 7 c3 -5 1 -10 -4 -10 -6 0 -11 5 -11 10 0 6 2 10 4 10
3 0 8 -4 11 -10z m538 -20 c14 -11 28 -20 31 -20 3 0 27 -13 53 -30 26 -16 43
-30 37 -30 -5 0 -22 9 -39 20 -36 24 -65 26 -65 5 0 -20 -6 -19 -30 5 -11 11
-20 29 -20 39 0 11 -6 22 -12 24 -9 4 -7 6 3 6 9 1 28 -8 42 -19z m107 -15
c-7 -8 -18 -15 -24 -15 -6 0 -2 7 8 15 25 19 32 19 16 0z m-594 -85 c2 -75 -6
-93 -33 -83 -8 3 -11 13 -7 25 4 14 2 18 -5 14 -6 -4 -11 0 -11 10 0 30 -11 8
-25 -48 l-13 -53 -1 63 c-1 47 3 64 14 68 8 4 15 14 15 23 0 13 2 13 9 2 6 -9
11 -10 15 -2 4 6 5 15 2 20 -10 16 6 42 23 39 13 -3 16 -18 17 -78z m44 46 c0
-19 -4 -38 -10 -41 -6 -4 -10 10 -10 34 0 23 5 41 10 41 6 0 10 -15 10 -34z
m79 -20 c1 -15 -2 -16 -14 -6 -16 13 -20 42 -8 54 8 8 21 -20 22 -48z m516 34
c-3 -5 -10 -10 -16 -10 -5 0 -9 5 -9 10 0 6 7 10 16 10 8 0 12 -4 9 -10z
m-425 -19 c0 -5 -7 -14 -15 -21 -8 -7 -15 -21 -15 -32 0 -14 -5 -18 -15 -14
-8 3 -15 0 -15 -6 0 -6 -3 -8 -6 -5 -8 8 16 69 30 79 15 10 36 10 36 -1z m247
-52 c27 0 27 -1 6 -9 -19 -8 -22 -14 -17 -40 5 -23 3 -30 -10 -30 -9 0 -16 5
-16 10 0 6 -12 10 -26 10 -21 0 -25 3 -19 18 4 9 10 27 12 39 4 18 9 21 23 13
10 -6 31 -10 47 -11z m173 1 c0 -5 -4 -10 -9 -10 -6 0 -13 5 -16 10 -3 6 1 10
9 10 9 0 16 -4 16 -10z m-593 -45 c-1 -19 -5 -35 -9 -35 -4 0 -8 16 -8 35 0
19 4 35 9 35 5 0 9 -16 8 -35z m90 15 c3 -11 10 -20 15 -20 5 0 6 -10 3 -21
-5 -15 -4 -19 4 -15 6 4 11 3 11 -3 0 -5 -5 -13 -11 -16 -5 -4 -14 -18 -19
-31 -11 -27 -60 -35 -60 -10 0 8 -3 22 -6 30 -4 11 -2 15 7 11 8 -3 21 0 29 5
13 9 13 11 0 19 -8 5 -17 8 -22 5 -6 -4 -28 27 -28 41 0 7 39 23 58 24 8 1 16
-8 19 -19z m577 4 c9 -3 16 -15 16 -25 0 -18 -1 -19 -25 -3 -38 25 -31 44 9
28z m-514 -28 c0 -8 9 -18 20 -21 11 -3 20 -10 20 -16 0 -12 -43 -7 -52 6 -11
15 -10 45 2 45 6 0 10 -6 10 -14z m140 -58 c43 -100 64 -123 131 -142 61 -17
61 -17 55 -49 -8 -39 -36 -69 -69 -73 -20 -2 -28 6 -47 42 -15 30 -20 54 -15
71 3 14 3 29 -2 32 -28 21 -82 102 -77 115 4 10 1 16 -9 16 -10 0 -13 7 -10
20 8 32 19 24 43 -32z m240 33 c0 -11 -4 -23 -10 -26 -5 -3 -10 1 -10 9 0 22
-17 28 -41 16 -11 -7 -23 -9 -26 -6 -8 7 36 25 65 25 15 1 22 -5 22 -18z m230
-6 c0 -8 -7 -15 -15 -15 -16 0 -20 12 -8 23 11 12 23 8 23 -8z m-815 -47 c-2
-18 -3 -39 -4 -46 -1 -18 -26 -10 -27 9 -1 8 -2 18 -3 23 0 5 -8 3 -16 -4 -12
-10 -15 -9 -15 7 0 18 30 41 56 42 7 1 11 -12 9 -31z m740 22 c-3 -5 0 -7 9
-4 10 4 20 -5 30 -30 12 -30 20 -36 45 -36 16 0 33 -4 36 -10 3 -5 1 -10 -5
-10 -6 0 -18 -7 -26 -15 -22 -21 -36 -19 -29 5 8 26 -1 25 -37 -5 -33 -28 -37
-29 -58 -15 -12 8 -11 12 7 32 27 30 24 72 -6 76 -33 5 -73 -25 -66 -48 6 -20
-20 -41 -46 -36 -30 7 -79 31 -79 39 0 17 21 47 32 47 9 0 9 -3 0 -12 -18 -18
-15 -35 7 -41 13 -3 18 0 16 12 -1 9 0 10 2 3 3 -7 9 -10 14 -7 5 3 6 -1 3 -9
-12 -31 17 -15 38 20 11 20 30 40 42 44 30 12 78 12 71 0z m-525 -10 c0 -5 -4
-10 -10 -10 -5 0 -10 5 -10 10 0 6 5 10 10 10 6 0 10 -4 10 -10z m-193 -152
c-2 -29 -3 -6 -3 52 0 58 1 81 3 53 2 -29 2 -77 0 -105z m-107 105 c0 -39 -13
-55 -35 -47 -17 7 -17 8 3 15 15 6 22 17 22 34 0 14 2 25 5 25 3 0 5 -12 5
-27z m365 7 c4 -6 -7 -10 -25 -10 -18 0 -29 4 -25 10 3 6 15 10 25 10 10 0 22
-4 25 -10z m-225 -20 c0 -5 -4 -10 -10 -10 -5 0 -10 5 -10 10 0 6 5 10 10 10
6 0 10 -4 10 -10z m120 -1 c0 -5 4 -8 8 -5 11 7 39 -93 33 -119 -3 -14 -7 -6
-15 24 -12 49 -36 68 -36 29 l0 -23 -18 23 c-14 18 -20 20 -30 10 -16 -16 -15
-7 2 27 20 38 56 60 56 34z m-60 -9 c0 -5 -2 -10 -4 -10 -3 0 -8 5 -11 10 -3
6 -1 10 4 10 6 0 11 -4 11 -10z m570 -22 c0 -13 -23 -5 -28 10 -2 7 2 10 12 6
9 -3 16 -11 16 -16z m-327 -22 c17 -18 10 -76 -9 -76 -8 0 -14 9 -14 19 0 12
-8 21 -22 24 l-23 4 23 8 c12 4 22 14 22 21 0 18 5 18 23 0z m164 8 c-3 -3
-12 -4 -19 -1 -8 3 -5 6 6 6 11 1 17 -2 13 -5z m-583 -20 c3 -8 2 -12 -4 -9
-6 3 -10 10 -10 16 0 14 7 11 14 -7z m583 0 c-3 -3 -12 -4 -19 -1 -8 3 -5 6 6
6 11 1 17 -2 13 -5z m-617 -31 c0 -19 -3 -24 -10 -17 -6 6 -8 18 -4 27 9 24
14 21 14 -10z m670 -58 c-7 -9 -15 -13 -17 -11 -7 7 7 26 19 26 6 0 6 -6 -2
-15z m-183 -37 c17 -14 7 -28 -21 -28 -14 0 -27 9 -33 23 -10 22 -9 24 15 19
15 -3 33 -9 39 -14z m-114 -24 c21 -18 41 -24 74 -24 39 0 44 -2 38 -17 -18
-44 -17 -121 3 -179 12 -33 24 -100 28 -151 6 -83 5 -95 -15 -127 -25 -39 -77
-76 -109 -76 -17 0 -24 11 -36 51 -9 28 -18 67 -22 87 -12 70 -36 147 -66 207
-18 37 -33 86 -38 130 -4 39 -11 77 -14 86 -5 10 3 20 26 32 42 21 92 14 131
-19z m351 4 c11 -42 7 -58 -14 -58 -39 0 -19 -18 38 -34 31 -9 69 -24 83 -33
56 -38 118 -135 130 -203 8 -50 -7 -119 -28 -127 -7 -3 -41 19 -75 49 -35 30
-85 70 -113 89 -27 19 -59 42 -70 52 -11 10 -41 34 -67 54 -36 28 -51 49 -68
94 -31 86 -14 109 78 109 26 0 56 7 66 15 27 20 33 19 40 -7z m795 -47 c11 -7
10 -12 -6 -28 -11 -11 -22 -27 -26 -36 -6 -16 -37 -25 -37 -10 0 3 8 24 17 45
17 39 27 44 52 29z m-1003 -68 c15 -58 43 -90 144 -166 138 -101 240 -189 240
-205 0 -7 -7 -15 -15 -18 -19 -8 -9 -24 14 -24 10 0 29 -9 43 -19 13 -11 37
-23 52 -27 27 -6 96 -68 96 -86 0 -4 -7 -8 -15 -8 -31 0 -13 -19 33 -35 93
-33 103 -38 110 -49 4 -6 22 -22 40 -34 38 -27 67 -24 114 10 l29 20 -7 -26
c-4 -19 -2 -26 9 -26 8 0 19 6 24 13 10 12 9 97 -1 123 -3 7 -1 16 4 19 6 4
10 -3 10 -15 0 -13 5 -20 13 -17 6 2 12 12 12 21 0 10 9 25 21 35 17 13 19 22
12 48 -5 18 -18 40 -31 49 -22 16 -21 16 16 10 43 -8 47 -1 12 26 -14 11 -25
29 -25 40 0 19 1 19 25 4 13 -9 40 -16 58 -16 20 0 46 -9 63 -22 38 -29 44
-39 41 -63 -1 -14 5 -21 21 -23 12 -2 22 -7 22 -12 0 -5 -13 -5 -30 0 -29 8
-42 -2 -19 -15 12 -8 2 -62 -17 -90 -19 -27 -18 -49 7 -118 24 -66 21 -127 -5
-156 -22 -24 -20 -34 4 -21 11 6 26 23 35 38 l15 27 -6 -27 c-8 -36 3 -36 18
0 l11 27 8 -30 c7 -29 7 -29 14 -7 11 34 27 6 20 -33 -5 -27 -5 -28 8 -12 8 9
17 17 20 17 2 0 14 -21 26 -46 12 -25 27 -44 34 -41 7 2 20 0 30 -5 11 -6 17
-5 17 2 0 6 5 8 11 5 6 -5 3 -12 -9 -21 -18 -12 -19 -22 -15 -76 3 -35 10 -69
16 -76 16 -20 27 -120 20 -183 -5 -48 -10 -58 -39 -78 -50 -34 -63 -16 -20 28
34 35 36 41 30 80 -4 27 -20 58 -45 89 -26 31 -47 71 -61 119 -12 40 -25 73
-30 73 -4 0 -8 -5 -8 -10 0 -11 -47 16 -65 36 -13 14 -76 36 -84 29 -3 -3 1
-15 8 -27 11 -18 11 -20 -4 -14 -9 3 -21 6 -26 6 -6 0 -5 8 1 20 9 16 8 22 -5
26 -8 3 -15 15 -15 25 0 10 -4 19 -10 19 -5 0 -10 -7 -10 -16 0 -14 -3 -14
-15 -4 -8 7 -15 20 -15 30 0 10 -9 20 -20 23 -17 4 -19 1 -14 -21 6 -25 5 -26
-8 -8 -12 15 -19 16 -34 8 -12 -6 -63 -9 -121 -8 -86 3 -106 1 -130 -15 -39
-26 -65 -25 -61 2 4 29 119 71 208 76 80 5 100 10 81 23 -11 6 -10 14 8 39 21
29 21 31 4 31 -24 0 -43 -19 -43 -42 0 -38 -64 -44 -73 -6 -4 14 -11 19 -23
14 -12 -5 -15 -2 -10 10 7 18 -19 48 -34 39 -5 -3 -10 0 -10 7 0 22 -87 85
-137 98 -50 14 -66 27 -58 48 7 18 -13 15 -23 -5 -10 -17 12 -42 51 -56 33
-12 21 -58 -28 -110 -40 -41 -51 -47 -86 -47 -42 0 -137 -43 -146 -67 -3 -7
-13 -13 -23 -13 -10 0 -23 -7 -30 -15 -8 -10 -31 -15 -71 -15 -53 0 -59 2 -59
20 0 12 -8 32 -17 46 -13 21 -17 55 -19 167 -2 78 1 146 6 152 5 6 8 42 8 80
-1 62 -4 73 -28 100 -24 26 -28 41 -33 110 -2 44 -12 98 -21 119 -18 42 -22
126 -6 126 5 0 13 -12 16 -27z m812 -33 c17 0 15 -8 -16 -69 -20 -41 -34 -56
-55 -62 -24 -7 -28 -5 -22 9 11 26 23 62 35 110 11 41 13 43 29 28 10 -9 23
-16 29 -16z m-290 -132 c6 -6 8 -17 3 -27 -5 -9 -11 -43 -15 -76 -6 -55 -5
-58 9 -41 8 11 15 31 15 45 0 21 2 23 10 11 13 -21 13 -81 -1 -77 -6 1 -16 -7
-22 -18 -12 -19 -21 -31 -45 -60 -13 -15 -16 -15 -31 -1 -10 9 -25 16 -34 16
-9 0 -17 5 -17 11 0 5 4 8 10 4 5 -3 23 18 40 47 23 42 30 65 30 110 0 51 6
64 31 67 3 1 10 -4 17 -11z m973 -28 c-13 -11 -28 -20 -35 -20 -6 1 0 10 13
20 13 11 28 20 35 20 6 -1 0 -10 -13 -20z m-87 -15 c-4 -8 -1 -22 5 -29 7 -9
8 -15 2 -18 -6 -2 -5 -30 4 -75 13 -66 12 -75 -5 -110 -27 -56 -115 -125 -95
-75 3 9 8 73 10 142 4 125 4 125 35 153 33 30 53 35 44 12z m115 -162 l-2 -98
-11 90 c-12 93 -12 105 5 105 5 0 8 -42 8 -97z m-52 71 c3 -8 1 -20 -4 -25 -7
-7 -12 -2 -15 15 -6 28 9 36 19 10z m-839 -55 c20 -23 61 -64 90 -92 28 -27
52 -57 52 -66 0 -9 -20 -34 -45 -54 -37 -31 -48 -36 -64 -27 -11 5 -29 10 -41
10 -19 0 -21 4 -15 29 3 17 2 32 -4 36 -6 3 -8 17 -5 31 4 17 1 26 -11 30 -14
6 -16 17 -11 68 3 33 5 64 5 69 2 14 12 7 49 -34z m-594 -5 c12 -32 5 -55 -30
-94 -23 -25 -31 -40 -22 -40 8 0 23 9 33 20 10 11 22 17 27 12 12 -12 -17 -65
-51 -90 -26 -19 -38 -21 -90 -16 -41 5 -58 10 -55 19 3 7 -3 16 -13 20 -17 7
-17 8 2 15 19 9 19 9 -3 16 -13 3 -21 11 -20 16 4 11 8 11 43 2 54 -13 155 63
155 119 0 21 16 22 24 1z m1433 -21 c-3 -10 -5 -4 -5 12 0 17 2 24 5 18 2 -7
2 -21 0 -30z m-62 -213 c-3 -15 3 -24 20 -30 14 -5 25 -14 25 -19 0 -14 43
-21 57 -9 10 8 13 5 13 -13 0 -23 -2 -24 -75 -23 -73 2 -76 1 -90 -26 -14 -26
-11 -40 7 -40 4 0 8 9 8 19 0 10 7 22 16 25 23 9 29 0 13 -20 -12 -15 -11 -16
9 -10 29 9 29 -7 0 -23 l-23 -12 22 5 c13 2 26 0 29 -5 3 -5 -1 -9 -9 -9 -26
0 -27 -29 -3 -52 13 -13 26 -30 29 -39 4 -13 -1 -13 -47 2 -49 17 -51 19 -50
53 1 37 -11 49 -19 19 -4 -14 -5 -12 -6 5 -1 12 -7 22 -16 22 -8 0 -15 9 -15
20 0 13 5 18 15 14 10 -4 15 0 15 15 0 11 9 26 20 33 11 7 20 16 20 20 0 14
-38 9 -43 -5 -3 -8 -22 -22 -42 -31 -49 -23 -66 -8 -31 27 13 14 27 23 30 20
2 -3 3 3 2 14 -3 14 -11 17 -37 15 l-34 -3 24 23 c16 16 25 19 28 11 5 -14 35
-18 47 -6 3 4 16 8 29 10 12 2 26 8 31 13 17 17 35 11 31 -10z m-1466 -16 c2
-10 9 -22 16 -26 7 -5 11 -17 8 -28 -4 -14 0 -20 10 -20 12 0 15 11 14 48 -2
44 0 47 23 49 22 1 22 1 3 -4 -25 -5 -32 -23 -9 -23 10 0 16 -19 20 -67 4 -38
8 -89 11 -115 2 -30 0 -48 -7 -48 -7 0 -6 -5 2 -15 7 -8 9 -15 5 -15 -5 0 -1
-8 9 -19 15 -17 15 -19 0 -32 -14 -11 -17 -11 -25 4 -12 21 -33 23 -25 2 4
-12 2 -13 -13 -6 -24 13 -61 3 -54 -15 4 -10 0 -12 -11 -8 -11 4 -16 1 -16
-11 0 -11 -5 -15 -14 -12 -8 3 -32 -11 -54 -32 -37 -35 -125 -71 -140 -57 -2
3 8 18 24 34 16 16 45 46 64 68 19 22 43 43 53 47 10 4 27 28 38 54 17 40 20
63 17 141 -4 78 -2 92 11 93 9 0 0 6 -19 12 l-35 11 35 6 c46 9 54 7 59 -16z
m1541 16 c0 -5 -4 -10 -10 -10 -5 0 -10 5 -10 10 0 6 5 10 10 10 6 0 10 -4 10
-10z m-280 -49 c0 -13 -30 -22 -43 -14 -7 4 -2 10 13 14 14 4 26 7 28 8 1 1 2
-3 2 -8z m-572 -17 c22 -15 30 -57 14 -80 -8 -12 -122 -37 -131 -29 -3 3 12
19 32 36 27 22 37 38 37 60 0 33 14 37 48 13z m579 -32 c-10 -10 -17 -24 -17
-30 0 -13 64 -27 79 -17 16 9 13 -27 -4 -49 -12 -16 -12 -20 3 -36 9 -9 29
-20 44 -24 35 -8 49 -33 36 -65 l-9 -25 -23 25 c-13 14 -31 39 -39 55 -9 16
-33 47 -54 69 -54 56 -77 94 -61 99 7 3 20 7 28 9 29 10 33 7 17 -11z m287
-32 c22 -8 26 -16 26 -47 0 -47 -13 -72 -26 -52 -5 8 -10 23 -11 33 -2 11 -12
26 -23 33 -11 8 -17 20 -14 28 7 18 14 18 48 5z m-2189 -54 c23 -27 35 -34 52
-30 12 3 30 1 40 -5 12 -8 13 -11 3 -9 -14 1 -109 -16 -152 -28 -10 -3 -18 -9
-18 -14 0 -16 30 -18 82 -4 74 19 81 18 131 -20 24 -18 57 -36 73 -39 16 -4
44 -9 62 -13 18 -3 34 -9 37 -13 7 -12 -187 -61 -240 -61 -47 0 -51 2 -62 31
-10 27 -16 30 -45 27 -36 -3 -41 -21 -8 -26 12 -2 25 -15 31 -29 9 -26 4 -47
-11 -38 -13 8 -35 -24 -23 -36 11 -11 38 0 76 30 19 16 22 15 31 -15 5 -17 2
-23 -16 -27 -13 -3 -68 -17 -122 -31 -71 -19 -103 -23 -110 -16 -20 20 32 48
76 43 36 -5 38 -4 38 21 0 27 -14 32 -65 27 -11 -1 -37 3 -58 10 l-37 12 29
26 c31 28 50 71 31 71 -6 0 -25 -7 -41 -16 -25 -12 -28 -18 -19 -29 10 -12 7
-17 -15 -25 -38 -15 -44 -13 -57 18 -7 15 -18 35 -26 44 -8 9 -11 22 -7 28 9
14 109 60 130 60 8 0 15 4 15 8 0 4 14 13 30 19 17 6 30 16 30 22 0 16 -52 14
-93 -4 -53 -22 -64 -18 -36 11 44 47 98 65 184 60 42 -3 53 -8 80 -40z m1412
20 c-6 -17 -41 -13 -45 5 -2 13 3 15 23 11 14 -2 24 -10 22 -16z m-44 -43 l32
-16 -30 -12 c-16 -7 -47 -15 -67 -19 -31 -6 -38 -4 -38 9 0 19 -10 19 -46 0
-32 -16 -121 -20 -143 -6 -29 19 0 33 54 26 33 -3 56 -2 60 5 3 5 18 10 33 10
15 0 34 5 42 10 23 15 67 12 103 -7z m637 -15 c0 -6 -6 -5 -15 2 -8 7 -15 14
-15 16 0 2 7 1 15 -2 8 -4 15 -11 15 -16z m-932 -58 c24 -8 42 -19 42 -28 0
-11 7 -13 33 -7 17 3 49 9 70 12 36 6 39 4 35 -18 -4 -30 -58 -43 -148 -34
-114 10 -153 20 -147 38 6 20 48 20 62 1 11 -16 15 -16 29 -5 23 19 20 27 -14
41 -16 7 -30 17 -30 22 0 7 5 7 13 1 6 -5 31 -15 55 -23z m1062 -47 c0 -10 -6
-13 -16 -9 -9 3 -18 6 -20 6 -2 0 -4 7 -4 15 0 10 -6 12 -17 8 -16 -6 -16 -5
-5 10 13 15 16 15 38 0 13 -8 24 -22 24 -30z m77 -90 c0 -68 -1 -71 -21 -63
-12 4 -38 6 -59 4 -32 -3 -38 0 -43 22 -5 19 0 32 22 53 16 16 34 26 41 24 9
-3 13 4 13 21 0 14 5 26 10 26 6 0 10 8 10 18 1 13 4 11 14 -8 8 -15 14 -54
13 -97z m-807 103 c0 -3 -4 -8 -10 -11 -5 -3 -10 -1 -10 4 0 6 5 11 10 11 6 0
10 -2 10 -4z m132 -30 c4 3 14 7 23 8 9 1 20 8 24 15 6 9 11 8 21 -4 7 -8 17
-15 23 -15 5 0 16 -8 23 -17 11 -16 16 -16 34 -5 19 12 21 11 18 -5 -3 -16
-18 -18 -178 -20 -96 0 -195 -6 -220 -12 -56 -13 -90 -14 -90 -2 0 5 26 13 58
17 31 3 74 15 95 26 21 10 43 18 50 16 21 -4 67 12 67 24 0 6 10 2 23 -10 13
-12 26 -20 29 -16z m-648 9 c20 -8 36 -17 36 -19 0 -2 -33 -3 -74 -2 -65 1
-77 -2 -99 -23 -14 -12 -31 -20 -37 -16 -6 4 -16 2 -23 -3 -7 -5 -34 -12 -62
-16 l-50 -7 25 20 c14 11 39 21 57 21 17 0 35 5 39 11 3 6 17 8 30 5 17 -5 26
-1 34 13 6 13 23 21 48 24 20 2 38 4 38 5 1 1 18 -5 38 -13z m218 -66 c9 -5
29 -9 43 -9 17 0 25 -5 22 -12 -6 -20 -83 -9 -130 19 l-42 24 45 -7 c25 -3 53
-10 62 -15z m-192 -4 c-8 -10 -30 -15 -61 -15 -63 0 -73 18 -12 23 27 2 56 4
67 5 15 2 16 -1 6 -13z m140 -37 c20 -14 28 -28 25 -39 -7 -21 11 -36 56 -44
30 -6 36 -10 32 -26 -5 -18 -7 -18 -23 -4 -9 8 -33 15 -53 15 -32 0 -36 3 -34
23 2 18 -4 23 -30 25 -17 2 -47 -5 -65 -14 -18 -10 -37 -17 -42 -16 -4 2 -24
-2 -43 -9 -23 -7 -33 -16 -29 -25 7 -19 -4 -18 -45 4 l-34 17 43 3 c40 3 61
22 23 22 -24 0 -81 20 -81 28 0 4 16 7 36 8 24 0 40 7 46 18 8 14 18 16 44 11
26 -4 34 -3 34 9 0 32 94 28 140 -6z m652 17 c27 -4 61 -2 78 3 58 21 30 -22
-35 -54 l-48 -22 -24 29 c-22 25 -31 29 -78 29 -30 0 -66 5 -81 10 -19 8 -30
7 -41 -1 -27 -23 9 -42 85 -44 70 -2 100 -11 85 -26 -9 -9 -44 -10 -314 -5
-108 2 -202 6 -208 10 -17 11 -3 26 25 26 14 0 42 9 63 20 22 10 68 24 102 29
67 10 309 7 391 -4z m190 -22 c37 -42 65 -119 73 -205 l7 -77 -31 -16 c-26
-13 -35 -13 -54 -3 l-22 13 25 3 c42 6 53 22 48 73 -4 34 -16 62 -47 106 -67
96 -67 179 1 106z m-1552 -2 c0 -11 9 -26 20 -34 25 -17 17 -22 -55 -33 -39
-5 -51 -4 -60 10 -11 14 -19 15 -56 7 -59 -14 -69 -13 -69 3 0 8 19 18 48 24
26 6 70 18 97 26 67 20 75 19 75 -3z m377 -15 c-2 -7 -47 -12 -133 -13 -110
-1 -125 0 -100 11 39 16 238 18 233 2z m1113 -35 c0 -5 12 -24 26 -41 74 -87
85 -170 23 -170 -16 0 -29 -4 -29 -10 0 -15 -40 -32 -103 -46 -55 -11 -76 -6
-62 16 3 5 21 12 41 16 35 6 43 31 8 26 -60 -9 -127 -4 -135 10 -5 10 -31 18
-64 23 -30 3 -55 10 -55 14 0 9 85 23 238 41 81 9 122 23 122 39 0 22 -68 22
-143 1 -47 -14 -79 -8 -78 14 0 5 28 20 63 34 35 13 67 28 73 33 12 12 75 11
75 0z m-1085 -49 c43 -39 60 -75 42 -91 -7 -5 -28 -12 -48 -16 -27 -5 -38 -3
-42 8 -5 13 -11 13 -51 -1 -38 -14 -52 -15 -91 -4 -25 7 -54 12 -65 12 -11 0
-20 4 -20 9 0 12 -86 23 -174 23 -78 0 -78 15 -1 29 57 11 101 32 98 47 -5 20
104 32 227 24 80 -4 87 -7 125 -40z m1434 35 c21 -10 25 -21 29 -66 5 -71 -3
-101 -28 -101 -12 0 -20 7 -21 18 -3 37 -5 42 -24 56 -19 15 -19 15 13 16 36
0 41 23 6 28 -31 5 -64 24 -64 38 0 24 51 31 89 11z m-2078 -20 c15 -12 15
-14 -1 -35 -10 -12 -24 -22 -32 -22 -8 0 -23 -7 -34 -16 -18 -15 -17 -15 16
-10 18 4 37 10 40 15 6 11 60 26 60 17 0 -3 -37 -24 -82 -46 -66 -32 -93 -40
-138 -40 -34 0 -64 -6 -76 -15 -29 -22 -34 -18 -17 15 8 17 12 41 9 54 -5 20
1 24 52 40 31 10 71 24 87 31 69 29 91 31 116 12z m1423 -4 c34 -9 63 -18 65
-20 2 -1 -4 -12 -15 -24 -15 -17 -26 -20 -57 -15 -21 4 -46 11 -56 18 -13 8
-41 8 -108 -1 -133 -17 -143 -16 -143 14 0 17 7 26 23 29 12 3 31 7 42 9 52
11 193 6 249 -10z m-524 -3 c12 -8 9 -10 -12 -10 -16 0 -28 5 -28 10 0 13 20
13 40 0z m-685 -10 c-27 -12 -43 -12 -25 0 8 5 22 9 30 9 10 0 8 -3 -5 -9z
m780 -30 c3 -5 -3 -10 -14 -10 -12 0 -24 0 -28 -1 -4 0 -9 4 -11 10 -5 14 45
15 53 1z m-95 -10 c0 -5 -13 -10 -30 -10 -16 0 -30 5 -30 10 0 6 14 10 30 10
17 0 30 -4 30 -10z m785 0 c-11 -5 -31 -9 -45 -9 -23 0 -23 1 -5 9 11 5 31 9
45 9 23 0 23 -1 5 -9z m-384 -23 c17 -4 29 -16 33 -31 3 -13 9 -31 12 -39 4
-11 -4 -17 -25 -22 -47 -10 -89 2 -93 28 -3 20 -8 22 -53 19 -73 -5 -115 5
-115 28 0 10 5 20 10 22 19 6 204 2 231 -5z m-1256 -24 c12 -17 18 -17 99 0
63 13 91 15 105 8 11 -6 37 -11 59 -11 21 0 42 -3 46 -7 4 -5 24 -13 44 -19
l37 -12 -42 -1 c-50 -1 -61 -14 -32 -35 21 -14 21 -14 -9 -30 -16 -8 -32 -24
-34 -34 -4 -14 -17 -21 -42 -24 -41 -5 -44 3 -15 43 13 18 29 29 45 29 15 0
24 6 24 15 0 12 -9 15 -35 12 -44 -5 -64 -22 -87 -75 -14 -31 -29 -46 -56 -58
-51 -21 -88 -28 -109 -19 -10 4 -26 9 -35 10 -26 3 -29 9 -20 35 6 15 34 36
82 59 65 33 89 58 50 55 -21 -3 -162 -44 -174 -52 -17 -10 -45 -13 -49 -4 -13
22 -16 62 -6 62 17 0 117 48 124 60 9 14 16 12 30 -7z m955 7 c0 -5 -6 -10
-14 -10 -8 0 -18 5 -21 10 -3 6 3 10 14 10 12 0 21 -4 21 -10z m-90 -10 c0 -5
-13 -10 -29 -10 -17 0 -33 5 -36 10 -4 6 8 10 29 10 20 0 36 -4 36 -10z m1011
-28 c7 -19 7 -33 -2 -49 -20 -37 -29 -27 -29 33 0 58 13 65 31 16z m-1021 -12
c0 -5 -9 -10 -20 -10 -11 0 -20 5 -20 10 0 6 9 10 20 10 11 0 20 -4 20 -10z
m110 6 c0 -2 -9 -6 -20 -9 -11 -3 -20 -1 -20 4 0 5 9 9 20 9 11 0 20 -2 20 -4z
m-320 -16 c0 -5 -4 -10 -10 -10 -5 0 -10 5 -10 10 0 6 5 10 10 10 6 0 10 -4
10 -10z m500 -12 c0 -5 -25 -8 -56 -8 -30 0 -53 3 -51 8 7 10 107 10 107 0z
m-285 -18 c-3 -5 -18 -9 -33 -9 l-27 1 30 8 c17 4 31 8 33 9 2 0 0 -3 -3 -9z
m125 0 c0 -5 -13 -10 -30 -10 -16 0 -30 5 -30 10 0 6 14 10 30 10 17 0 30 -4
30 -10z m1080 -24 c0 -32 -19 -46 -62 -46 -37 0 -38 1 -38 34 0 34 1 35 43 38
53 4 57 2 57 -26z m-1430 14 c0 -5 -5 -10 -11 -10 -5 0 -7 5 -4 10 3 6 8 10
11 10 2 0 4 -4 4 -10z m795 0 c6 -4 22 -10 38 -14 32 -7 36 -32 7 -41 -27 -8
-25 -19 4 -33 18 -8 30 -7 49 3 15 7 39 15 54 16 15 2 33 6 38 10 25 16 82 19
100 4 23 -17 52 -19 57 -5 2 5 18 13 36 16 33 7 33 6 21 -14 -19 -30 5 -52 57
-55 27 -1 39 -7 39 -17 0 -12 -12 -15 -60 -13 -140 5 -162 4 -204 -2 -94 -15
-251 35 -251 81 0 9 -11 14 -34 14 -19 0 -47 5 -63 12 l-28 12 27 4 c14 2 31
9 37 16 12 15 60 18 76 6z m-219 -9 c5 -5 18 -11 29 -14 11 -3 4 -5 -17 -6
-28 -1 -38 3 -38 14 0 17 11 20 26 6z m-752 -26 c8 -8 23 -15 33 -15 11 0 4
-7 -17 -16 -19 -9 -75 -35 -125 -59 -144 -69 -184 -85 -215 -85 -46 0 -37 25
23 58 131 75 244 131 264 131 12 1 28 -6 37 -14z m506 5 c0 -5 -5 -10 -11 -10
-5 0 -7 5 -4 10 3 6 8 10 11 10 2 0 4 -4 4 -10z m-107 -7 c-7 -2 -21 -2 -30 0
-10 3 -4 5 12 5 17 0 24 -2 18 -5z m-253 -33 c0 -5 -4 -10 -10 -10 -5 0 -10 5
-10 10 0 6 5 10 10 10 6 0 10 -4 10 -10z m45 0 c3 -6 -4 -10 -17 -10 -18 0
-20 2 -8 10 19 12 18 12 25 0z m405 -11 c0 -5 -4 -9 -10 -9 -5 0 -10 7 -10 16
0 8 5 12 10 9 6 -3 10 -10 10 -16z m208 14 c-15 -2 -42 -2 -60 0 -18 2 -6 4
27 4 33 0 48 -2 33 -4z m-381 -9 c-3 -3 -12 -4 -19 -1 -8 3 -5 6 6 6 11 1 17
-2 13 -5z m-224 -31 c-7 -2 -21 -2 -30 0 -10 3 -4 5 12 5 17 0 24 -2 18 -5z
m1344 -9 c-3 -3 -12 -4 -19 -1 -8 3 -5 6 6 6 11 1 17 -2 13 -5z m-1120 -10
c-3 -3 -12 -4 -19 -1 -8 3 -5 6 6 6 11 1 17 -2 13 -5z m479 -10 c18 -14 17
-15 -21 -10 -22 3 -51 6 -65 7 l-25 1 25 8 c40 13 65 11 86 -6z m-491 -24 c3
-5 2 -10 -4 -10 -5 0 -13 5 -16 10 -3 6 -2 10 4 10 5 0 13 -4 16 -10z m1132 4
c-3 -3 -12 -4 -19 -1 -8 3 -5 6 6 6 11 1 17 -2 13 -5z m-1010 -10 c-3 -3 -12
-4 -19 -1 -8 3 -5 6 6 6 11 1 17 -2 13 -5z m363 -14 c0 -12 -24 -12 -60 0 -21
7 -19 8 18 9 23 1 42 -3 42 -9z m78 -15 c-2 -24 -3 -24 -20 -5 -23 25 -23 30
2 30 15 0 19 -6 18 -25z m292 15 c0 -5 -21 -9 -47 -9 l-48 2 40 7 c22 4 43 8
48 9 4 0 7 -3 7 -9z m70 0 c0 -5 -4 -10 -10 -10 -5 0 -10 5 -10 10 0 6 5 10
10 10 6 0 10 -4 10 -10z m-970 -10 c0 -5 -11 -10 -24 -10 -14 0 -28 5 -31 10
-4 6 7 10 24 10 17 0 31 -4 31 -10z m-320 -10 c0 -5 -4 -10 -10 -10 -5 0 -10
5 -10 10 0 6 5 10 10 10 6 0 10 -4 10 -10z m-210 -20 c0 -5 -2 -10 -4 -10 -3
0 -8 5 -11 10 -3 6 -1 10 4 10 6 0 11 -4 11 -10z m813 3 c-7 -2 -19 -2 -25 0
-7 3 -2 5 12 5 14 0 19 -2 13 -5z m306 -9 c2 -2 -10 -4 -27 -4 -18 0 -32 5
-32 10 0 9 47 4 59 -6z m645 -4 c-15 -15 -134 -25 -134 -11 0 6 18 11 43 12
23 1 53 4 67 8 29 9 38 5 24 -9z m-1164 -5 c0 -1 -21 -2 -47 -2 -40 0 -43 1
-18 6 26 6 65 4 65 -4z m-1100 -44 c0 -46 19 -66 55 -57 15 4 34 1 48 -8 12
-8 52 -17 89 -21 37 -4 69 -12 71 -19 5 -13 -259 -15 -305 -2 -34 10 -35 23
-3 66 14 19 25 44 25 57 0 13 5 23 10 23 6 0 10 -17 10 -39z m705 29 c-3 -5
-10 -10 -16 -10 -5 0 -9 5 -9 10 0 6 7 10 16 10 8 0 12 -4 9 -10z m235 0 c0
-5 -4 -10 -9 -10 -6 0 -13 5 -16 10 -3 6 1 10 9 10 9 0 16 -4 16 -10z m464 1
c9 -14 -86 -24 -114 -11 -23 9 -22 10 12 6 21 -3 40 0 43 5 8 12 52 12 59 0z
m82 -17 c-3 -9 -6 -20 -6 -25 0 -5 -25 -9 -55 -9 -30 0 -55 4 -55 8 0 4 16 6
35 4 30 -4 35 -1 35 17 0 16 6 21 26 21 20 0 25 -4 20 -16z m-861 -14 c3 -5
-1 -10 -10 -10 -9 0 -13 5 -10 10 3 6 8 10 10 10 2 0 7 -4 10 -10z m480 0 c3
-5 -1 -10 -10 -10 -9 0 -13 5 -10 10 3 6 8 10 10 10 2 0 7 -4 10 -10z m1102 4
c-3 -3 -12 -4 -19 -1 -8 3 -5 6 6 6 11 1 17 -2 13 -5z m-2623 -39 c8 -19 19
-35 23 -36 4 0 29 -2 54 -4 26 -1 52 -5 58 -9 19 -12 12 -26 -13 -26 -28 0
-45 -19 -27 -30 16 -10 94 5 99 19 4 13 114 15 127 2 18 -18 128 -29 185 -20
34 5 86 5 135 -1 44 -5 98 -11 120 -13 22 -2 -195 -4 -482 -5 -288 -1 -523 1
-523 4 0 25 27 44 77 55 65 14 105 39 122 75 15 33 28 30 45 -11z m994 28
c-10 -2 -26 -2 -35 0 -10 3 -2 5 17 5 19 0 27 -2 18 -5z m292 -12 c0 -11 -38
-21 -56 -14 -26 10 -14 23 21 23 19 0 35 -4 35 -9z m197 3 c-3 -3 -12 -4 -19
-1 -8 3 -5 6 6 6 11 1 17 -2 13 -5z m282 -10 c2 -2 2 -7 -2 -10 -9 -10 -77 5
-77 17 0 9 68 3 79 -7z m204 9 c-7 -2 -19 -2 -25 0 -7 3 -2 5 12 5 14 0 19 -2
13 -5z m470 -10 c-7 -2 -21 -2 -30 0 -10 3 -4 5 12 5 17 0 24 -2 18 -5z m137
-10 c2 -2 -21 -3 -53 -2 -32 1 -60 5 -62 9 -4 7 107 1 115 -7z m110 7 c0 -5
-21 -9 -47 -9 -43 1 -45 2 -18 9 44 11 65 11 65 0z m-1650 -10 c0 -5 -7 -10
-15 -10 -8 0 -15 5 -15 10 0 6 7 10 15 10 8 0 15 -4 15 -10z m-710 -8 c0 -18
-26 -32 -59 -32 l-36 1 35 19 c37 20 60 25 60 12z m1200 -2 c-20 -13 -60 -13
-60 0 0 6 17 10 38 10 27 0 33 -3 22 -10z m-410 -10 c0 -5 -5 -10 -11 -10 -5
0 -7 5 -4 10 3 6 8 10 11 10 2 0 4 -4 4 -10z m860 1 c0 -6 -17 -7 -37 -4 -52
8 -54 13 -5 13 23 0 42 -4 42 -9z m-697 -7 c4 -4 5 -10 2 -14 -6 -9 -65 0 -65
11 0 10 53 12 63 3z m1155 -1 c-16 -2 -40 -2 -55 0 -16 2 -3 4 27 4 30 0 43
-2 28 -4z m-1378 -13 c0 -6 -21 -8 -57 -4 -78 9 -79 14 -5 14 35 0 62 -4 62
-10z m1595 -1 c-56 -11 -143 -11 -150 1 -4 6 29 10 92 9 79 -1 90 -3 58 -10z
m-1151 -11 c-3 -4 -20 -8 -37 -7 -30 1 -30 1 -7 8 34 10 50 9 44 -1z m389 -10
c-6 -11 -93 -10 -93 0 0 5 22 8 49 8 27 -1 47 -4 44 -8z m92 2 c3 -5 -3 -10
-14 -10 -11 0 -23 5 -26 10 -3 6 3 10 14 10 11 0 23 -4 26 -10z m-855 -10 c0
-5 -4 -10 -10 -10 -5 0 -10 5 -10 10 0 6 5 10 10 10 6 0 10 -4 10 -10z m-297
-13 c27 -7 49 -17 50 -22 3 -17 -39 -17 -53 0 -7 9 -29 15 -54 15 -30 0 -37 3
-26 10 19 12 25 12 83 -3z m395 6 c-10 -2 -28 -2 -40 0 -13 2 -5 4 17 4 22 1
32 -1 23 -4z m62 -3 c0 -13 -11 -13 -30 0 -12 8 -11 10 8 10 12 0 22 -4 22
-10z m1220 6 c0 -11 -19 -15 -25 -6 -3 5 1 10 9 10 9 0 16 -2 16 -4z m-77 -13
c-7 -2 -19 -2 -25 0 -7 3 -2 5 12 5 14 0 19 -2 13 -5z m-1406 -19 c-9 -10 -87
-11 -87 -1 0 4 21 7 47 7 25 0 43 -3 40 -6z m1661 -210 l-3 -175 -1155 -6
c-635 -4 -1291 -7 -1457 -7 l-303 -1 -2 173 c-2 94 -3 173 -3 174 0 4 1326 13
2163 16 l762 2 -2 -176z"/>
<g>
<path d="M1428 4999 c-46 -24 -57 -56 -32 -98 20 -35 69 -50 102 -32 31 16 47
65 33 100 -10 22 -49 54 -64 51 -1 -1 -19 -10 -39 -21z m75 -42 c13 -40 -5
-77 -37 -77 -27 0 -41 14 -50 52 -14 58 68 81 87 25z"/>
</g>
<g>
<path d="M2258 4628 c-23 -19 -31 -74 -13 -92 8 -8 19 -35 25 -62 14 -62 20
-71 36 -50 8 12 14 14 19 6 10 -16 -14 -40 -32 -33 -13 5 -15 2 -9 -12 4 -11
2 -22 -6 -26 -10 -6 -8 -12 7 -23 16 -13 17 -17 6 -25 -11 -7 -11 -9 0 -14 22
-7 -14 -39 -44 -39 -17 0 -27 -7 -30 -20 -4 -16 -11 -18 -29 -13 -13 4 -26 13
-30 19 -6 8 -8 7 -8 -1 0 -7 -11 -13 -25 -13 -37 0 -30 -20 8 -21 37 -1 85
-17 54 -18 -29 -1 -67 -32 -67 -54 0 -11 -8 -25 -17 -32 -15 -11 -14 -14 10
-29 24 -16 30 -16 89 -1 71 18 80 24 82 57 0 12 8 24 16 25 51 9 48 -61 -4
-82 -17 -7 -67 -19 -110 -26 l-79 -12 -24 29 c-12 16 -23 37 -23 47 0 9 -7 17
-15 17 -35 0 -8 -62 43 -99 26 -18 31 -18 82 -5 30 8 88 16 127 19 83 4 140
30 167 75 28 48 13 231 -20 244 -8 3 -14 11 -14 18 0 7 -23 25 -51 41 -55 30
-59 51 -7 36 21 -5 36 -5 42 1 6 6 8 10 6 11 -3 0 -16 2 -30 5 -77 12 -90 16
-90 24 0 10 55 2 83 -12 11 -6 17 -5 17 2 0 6 -13 13 -29 16 -27 6 -28 9 -24
44 9 67 -44 114 -89 78z m62 -34 c0 -8 -4 -12 -10 -9 -5 3 -10 13 -10 21 0 8
5 12 10 9 6 -3 10 -13 10 -21z m-34 -24 c8 -10 10 -21 4 -30 -8 -13 -12 -12
-24 5 -17 22 -20 47 -9 59 4 4 9 1 12 -6 2 -7 10 -20 17 -28z m122 -203 c4
-22 -16 -22 -40 0 -26 23 -22 32 10 24 15 -4 28 -15 30 -24z m-54 -70 c14 -47
15 -65 6 -93 -11 -31 -30 -47 -30 -24 0 6 -11 10 -25 10 -14 0 -25 5 -25 11 0
7 -10 9 -25 7 -14 -3 -25 -2 -25 1 0 13 24 31 40 31 9 0 27 11 40 25 19 21 22
31 16 67 -10 59 8 38 28 -35z m60 1 c-5 -8 0 -9 15 -5 28 7 23 -13 -6 -24 -17
-6 -20 -4 -20 17 0 13 4 24 9 24 5 0 6 -5 2 -12z m20 -53 c-10 -8 -23 -14 -29
-14 -5 0 -1 6 9 14 11 8 24 15 30 15 5 0 1 -7 -10 -15z m-7 -35 c-27 -22 -37
-25 -37 -12 0 5 10 14 23 20 35 17 42 14 14 -8z m18 -40 c-3 -5 -20 -19 -38
-30 -32 -22 -32 -22 3 9 37 32 45 37 35 21z m-45 -4 c0 -3 -4 -8 -10 -11 -5
-3 -10 -1 -10 4 0 6 5 11 10 11 6 0 10 -2 10 -4z m-251 -70 c9 -11 9 -16 -1
-22 -7 -4 -10 -4 -6 1 4 4 3 14 -3 22 -6 7 -9 13 -6 13 2 0 10 -6 16 -14z
m201 -16 c0 -5 -4 -10 -10 -10 -5 0 -10 5 -10 10 0 6 5 10 10 10 6 0 10 -4 10
-10z"/>
</g>
<g>
<path d="M1479 4263 c-11 -30 -5 -39 32 -48 47 -12 50 42 3 64 -22 10 -26 8
-35 -16z"/>
</g>
<g>
<path d="M2173 4265 c-3 -9 -3 -18 0 -22 10 -10 37 6 37 22 0 20 -29 20 -37 0z"/>
</g>
<g>
<path d="M2639 3921 c-20 -16 -22 -22 -12 -42 l12 -24 0 23 c1 23 25 30 35 10
4 -7 4 -3 2 10 -3 14 1 22 10 22 8 0 14 5 14 10 0 17 -36 11 -61 -9z"/>
</g>
<g>
<path d="M1310 3780 c-9 -16 -8 -20 5 -20 8 0 15 2 15 4 0 2 3 11 6 20 9 23
-13 20 -26 -4z"/>
</g>
<g>
<path d="M1337 3762 c-19 -21 -22 -32 -7 -32 10 0 34 39 27 46 -2 2 -11 -4
-20 -14z"/>
</g>
<g>
<path d="M1391 3694 c-18 -21 -6 -30 14 -11 8 9 15 18 15 21 0 11 -15 5 -29
-10z"/>
</g>
<g>
<path d="M2396 2991 c-10 -11 -25 -16 -41 -13 -14 2 -31 -2 -40 -12 -9 -9 -14
-17 -11 -17 3 -1 10 -2 15 -3 5 0 13 -4 17 -8 4 -5 18 -8 31 -8 15 0 23 -6 23
-17 0 -11 3 -14 8 -7 7 10 87 61 87 56 0 -2 8 0 18 4 24 9 36 -5 14 -17 -9 -6
-17 -17 -17 -25 0 -8 -11 -19 -25 -24 -27 -10 -34 -30 -11 -30 8 0 16 -5 18
-11 3 -8 21 -4 56 12 56 26 63 34 33 42 -12 3 -21 15 -23 33 -3 28 -4 29 -54
26 -45 -3 -52 -1 -57 17 -6 26 -19 27 -41 2z"/>
</g>
<g>
<path d="M2320 2910 c0 -5 5 -10 11 -10 5 0 7 5 4 10 -3 6 -8 10 -11 10 -2 0
-4 -4 -4 -10z"/>
</g>
<g>
<path d="M2525 2829 c-4 -6 -5 -12 -2 -15 2 -3 7 2 10 11 7 17 1 20 -8 4z"/>
</g>
<g>
<path d="M2540 3560 c0 -5 12 -10 28 -10 21 0 24 2 12 10 -20 13 -40 13 -40 0z"/>
</g>
<g>
<path d="M2601 3557 c2 -1 13 -9 24 -17 19 -14 19 -14 6 3 -7 9 -18 17 -24 17
-6 0 -8 -1 -6 -3z"/>
</g>
<g>
<path d="M860 3580 c0 -5 5 -10 10 -10 6 0 10 5 10 10 0 6 -4 10 -10 10 -5 0
-10 -4 -10 -10z"/>
</g>
<g>
<path d="M880 3535 c0 -8 2 -15 4 -15 2 0 11 -3 20 -6 23 -9 20 13 -4 26 -16
9 -20 8 -20 -5z"/>
</g>
<g>
<path d="M1453 3492 c-8 -5 -8 -11 1 -24 15 -20 26 -14 26 14 0 19 -8 22 -27
10z"/>
</g>
<g>
<path d="M430 3070 c-9 -6 -10 -10 -3 -10 6 0 15 5 18 10 8 12 4 12 -15 0z"/>
</g>
<g>
<path d="M720 1681 c0 -41 -33 -77 -102 -112 -56 -28 -64 -30 -104 -20 -51 13
-67 14 -60 3 3 -5 30 -15 60 -22 48 -11 59 -11 73 1 10 8 34 22 54 32 57 29
89 64 89 97 0 17 3 30 7 30 23 0 115 -55 141 -84 16 -19 44 -42 61 -50 71 -37
210 -55 304 -40 74 13 34 21 -76 16 -101 -4 -117 -2 -157 17 -24 11 -50 21
-57 21 -8 0 -35 19 -61 43 -39 36 -143 97 -165 97 -4 0 -7 -13 -7 -29z"/>
</g>
<g>
<path d="M1966 3363 c-3 -4 -6 -15 -6 -25 0 -19 25 -25 35 -8 7 12 -20 42 -29
33z"/>
</g>
<g>
<path d="M1089 3200 c-10 -10 -13 -23 -9 -31 7 -10 14 -9 35 5 21 14 24 20 14
32 -14 18 -20 17 -40 -6z"/>
</g>
<g>
<path d="M1346 2897 c3 -10 9 -15 12 -12 3 3 0 11 -7 18 -10 9 -11 8 -5 -6z"/>
</g>
<g>
<path d="M1361 2776 c-15 -18 5 -34 22 -17 8 8 8 11 -2 11 -7 0 -9 5 -6 10 9
15 -1 12 -14 -4z"/>
</g>
<g>
<path d="M995 2681 c-3 -5 -1 -12 5 -16 5 -3 10 1 10 9 0 18 -6 21 -15 7z"/>
</g>
<g>
<path d="M1470 2360 c0 -14 7 -20 22 -20 20 0 21 1 3 20 -10 11 -20 20 -22 20
-1 0 -3 -9 -3 -20z"/>
</g>
<g>
<path d="M1707 1788 c-8 -13 -23 -41 -33 -63 -11 -22 -30 -45 -44 -52 -18 -9
-20 -13 -8 -13 22 0 50 30 80 86 12 24 26 44 30 44 3 0 11 -13 17 -30 5 -16
15 -30 21 -30 6 0 8 5 5 10 -3 6 -1 10 6 10 7 0 3 9 -9 20 -12 12 -22 25 -22
30 0 19 -30 10 -43 -12z"/>
</g>
<g>
<path d="M2482 1783 c5 -25 28 -28 28 -4 0 12 -6 21 -16 21 -9 0 -14 -7 -12
-17z"/>
</g>
<g>
<path d="M2480 1688 c-12 -22 -12 -22 6 -6 10 10 15 20 12 24 -4 3 -12 -5 -18
-18z"/>
</g>
<g>
<path d="M1561 1649 c-13 -5 -21 -12 -18 -15 3 -3 18 1 34 10 31 17 21 20 -16
5z"/>
</g>
<g>
<path d="M2505 1557 c-18 -28 -12 -108 7 -89 6 6 17 8 24 5 20 -8 17 3 -8 26
-19 19 -20 23 -8 46 18 34 6 43 -15 12z"/>
</g>
<g>
<path d="M2470 1461 c0 -10 -11 -30 -26 -46 -31 -34 -22 -48 10 -14 26 26 43
79 26 79 -5 0 -10 -8 -10 -19z"/>
</g>
<g>
<path d="M2400 1430 c0 -5 4 -10 9 -10 6 0 13 5 16 10 3 6 -1 10 -9 10 -9 0
-16 -4 -16 -10z"/>
</g>
<g>
<path d="M2496 1414 c-9 -22 3 -32 14 -14 12 19 12 30 1 30 -5 0 -12 -7 -15
-16z"/>
</g>
<g>
<path d="M2240 1380 c0 -13 11 -13 30 0 12 8 11 10 -7 10 -13 0 -23 -4 -23
-10z"/>
</g>
<g>
<path d="M2520 1340 c0 -5 7 -10 15 -10 8 0 15 5 15 10 0 6 -7 10 -15 10 -8 0
-15 -4 -15 -10z"/>
</g>
<g>
<path d="M2815 1330 c-3 -6 1 -7 9 -4 18 7 21 14 7 14 -6 0 -13 -4 -16 -10z"/>
</g>
<g>
<path d="M1416 1451 c-4 -5 -2 -21 4 -35 13 -34 40 -24 40 15 0 22 -5 29 -19
29 -11 0 -22 -4 -25 -9z"/>
</g>
<g>
<path d="M1436 1371 c-9 -14 5 -42 18 -38 15 5 14 39 -1 44 -6 2 -14 0 -17 -6z"/>
</g>
<g>
<path d="M653 1355 c-17 -13 -16 -14 9 -15 30 0 46 15 24 23 -8 3 -22 -1 -33
-8z"/>
</g>
<g>
<path d="M611 1277 c-6 -8 -8 -17 -5 -20 7 -7 44 14 44 25 0 13 -27 9 -39 -5z"/>
</g>
<g>
<path d="M1955 294 c-52 -27 -65 -44 -65 -86 0 -80 45 -113 148 -106 55 4 68
8 88 32 13 15 24 37 24 48 0 36 -39 104 -66 116 -35 17 -94 15 -129 -4z m113
-13 c23 -14 32 -81 17 -117 -23 -55 -64 -63 -122 -24 -16 10 -23 25 -23 48 0
36 23 87 42 95 21 9 72 7 86 -2z"/>
</g>
<g>
<path d="M2190 302 c0 -4 4 -12 10 -18 15 -15 25 -150 11 -158 -29 -19 -6 -27
71 -24 79 3 82 4 99 33 22 37 23 45 6 45 -8 0 -20 -11 -27 -25 -12 -22 -20
-25 -49 -23 l-36 3 0 88 0 87 -42 0 c-24 0 -43 -4 -43 -8z"/>
</g>
<g>
<path d="M843 287 c-2 -4 3 -10 11 -13 13 -5 16 -23 16 -89 0 -58 -4 -85 -12
-88 -26 -9 2 -18 71 -23 69 -6 71 -5 83 20 15 35 -4 59 -21 27 -9 -15 -21 -21
-46 -21 -32 0 -35 3 -35 29 0 35 15 48 35 31 21 -17 36 -3 29 28 -9 37 -14 40
-30 18 -19 -27 -36 -8 -32 35 2 28 7 35 30 37 19 2 30 -3 38 -18 6 -11 15 -18
21 -15 13 9 11 45 -3 46 -53 5 -151 3 -155 -4z"/>
</g>
<g>
<path d="M1378 293 c-35 -4 -50 -17 -29 -25 6 -1 13 -38 17 -80 6 -70 5 -78
-10 -78 -10 0 -16 -5 -14 -12 5 -14 108 -12 123 3 9 9 8 10 -25 13 -9 0 -16
13 -18 33 -3 28 0 32 25 35 22 2 27 7 25 23 -5 29 -12 32 -26 13 -16 -22 -26
-13 -26 23 0 22 6 30 24 35 46 11 70 1 80 -33 5 -18 12 -33 16 -33 14 0 20 74
7 82 -12 8 -99 8 -169 1z"/>
</g>
<g>
<path d="M1649 276 c-102 -71 -62 -175 69 -179 83 -3 116 21 120 86 3 38 -1
51 -26 78 -23 25 -38 32 -78 36 -40 4 -55 0 -85 -21z m127 -31 c19 -29 14 -90
-10 -113 -21 -21 -72 -19 -96 3 -24 22 -27 81 -4 113 23 33 88 31 110 -3z"/>
</g>
<g>
<path d="M292 264 c4 -34 24 -42 31 -14 4 16 12 21 29 18 22 -3 23 -6 21 -90
l-2 -88 28 0 29 0 -5 63 c-3 34 0 74 6 90 13 32 45 36 61 7 15 -29 32 -25 28
8 l-3 27 -113 3 -113 3 3 -27z"/>
</g>
<g>
<path d="M585 281 c-25 -5 -27 -8 -12 -14 17 -6 19 -17 15 -97 l-3 -90 32 0
c32 0 57 20 35 28 -7 2 -12 21 -12 42 l0 37 50 2 50 1 0 -55 0 -55 40 0 c22 0
40 5 40 10 0 6 -7 10 -16 10 -13 0 -15 14 -13 93 l2 92 -38 3 c-32 3 -37 1
-31 -13 13 -36 18 -65 10 -66 -5 -1 -29 -3 -53 -4 l-43 -4 5 45 c5 48 4 49
-58 35z"/>
</g>
<g>
<path d="M2544 135 c-4 -10 -1 -21 7 -26 20 -12 34 -5 34 17 0 24 -33 31 -41
9z"/>
</g>
</g>
</g>
</svg>
